<svg id="Grupo_65" data-name="Grupo 65" xmlns="http://www.w3.org/2000/svg" width="117.075" height="52.314" viewBox="0 0 117.075 52.314">
  <path id="Caminho_1521" data-name="Caminho 1521" d="M124.724,221.93l.951,0,.412-1.98h.3a2.407,2.407,0,0,0,.611-.072,1.4,1.4,0,0,0,.482-.234,1.313,1.313,0,0,0,.369-.447,2.6,2.6,0,0,0,.236-.692l.192-.922a1.261,1.261,0,0,0-.118-1.082.866.866,0,0,0-.43-.253h-1.823Zm1.965-4.882H127q.26,0,.325.129a.8.8,0,0,1-.005.467l-.148.714c-.022.1-.04.183-.054.24a1.52,1.52,0,0,1-.067.193.479.479,0,0,1-.1.16.47.47,0,0,1-.144.091.539.539,0,0,1-.211.038h-.331Z" transform="translate(-105.877 -171.095)" fill="#797d8e"/>
  <path id="Caminho_1522" data-name="Caminho 1522" d="M139.28,219.742l0,0v0a.84.84,0,0,0-.734.471l.082-.393-.925,0-.945,4.543.925,0,.627-3.016q.173-.733.676-.735h0a.594.594,0,0,1,.145.017.4.4,0,0,1,.105.037l.069.041.037.025.191-.918A.388.388,0,0,0,139.28,219.742Z" transform="translate(-114.294 -173.542)" fill="#797d8e"/>
  <path id="Caminho_1523" data-name="Caminho 1523" d="M148.663,220.273a.682.682,0,0,0-.169-.315.811.811,0,0,0-.336-.2,1.7,1.7,0,0,0-.53-.07,1.959,1.959,0,0,0-.67.106,1.152,1.152,0,0,0-.471.311,1.731,1.731,0,0,0-.3.46,3.113,3.113,0,0,0-.184.6l-.365,1.754a3.245,3.245,0,0,0-.068.485,1.277,1.277,0,0,0,.04.4.693.693,0,0,0,.173.313.83.83,0,0,0,.342.195,1.717,1.717,0,0,0,.533.07,1.966,1.966,0,0,0,.673-.106,1.121,1.121,0,0,0,.464-.311,1.687,1.687,0,0,0,.288-.458,3.254,3.254,0,0,0,.18-.6l.365-1.753a3.206,3.206,0,0,0,.068-.488A1.35,1.35,0,0,0,148.663,220.273Zm-.956.877-.37,1.78a1.338,1.338,0,0,1-.167.471.391.391,0,0,1-.341.139.422.422,0,0,1-.176-.03.23.23,0,0,1-.1-.073.24.24,0,0,1-.033-.131.855.855,0,0,1,.008-.162c.008-.05.021-.12.039-.208l.371-1.783a1.327,1.327,0,0,1,.168-.473.394.394,0,0,1,.345-.141.417.417,0,0,1,.2.039.178.178,0,0,1,.088.13.682.682,0,0,1,.008.184C147.744,220.954,147.73,221.04,147.707,221.151Z" transform="translate(-120.464 -173.508)" fill="#797d8e"/>
  <path id="Caminho_1524" data-name="Caminho 1524" d="M159.353,219.943a.621.621,0,0,0-.27-.213,1.1,1.1,0,0,0-.442-.077.773.773,0,0,0-.7.384l.062-.3-.921,0-1.232,5.926.921,0,.352-1.693a.484.484,0,0,0,.544.384,1.356,1.356,0,0,0,.473-.079,1.1,1.1,0,0,0,.353-.209,1.307,1.307,0,0,0,.257-.332,2.288,2.288,0,0,0,.184-.418,4.942,4.942,0,0,0,.129-.5l.337-1.621a4.476,4.476,0,0,0,.078-.495,1.839,1.839,0,0,0-.009-.419A.793.793,0,0,0,159.353,219.943Zm-.82.964c-.007.055-.02.126-.038.212l-.367,1.765a1.36,1.36,0,0,1-.168.474.393.393,0,0,1-.346.143q-.247,0-.287-.139a1.079,1.079,0,0,1,.027-.461l.372-1.787a1.32,1.32,0,0,1,.169-.473.4.4,0,0,1,.343-.141.406.406,0,0,1,.17.03.227.227,0,0,1,.1.077.254.254,0,0,1,.035.132A.98.98,0,0,1,158.533,220.907Z" transform="translate(-127.657 -173.48)" fill="#797d8e"/>
  <path id="Caminho_1525" data-name="Caminho 1525" d="M171.425,219.616a2.053,2.053,0,0,0-.656.1,1.125,1.125,0,0,0-.458.283,1.517,1.517,0,0,0-.285.417,2.5,2.5,0,0,0-.171.542l-.053.253.921,0,.055-.264a.822.822,0,0,1,.149-.363.411.411,0,0,1,.327-.114q.247,0,.287.137a1.1,1.1,0,0,1-.029.47l-.131.631a1.927,1.927,0,0,0-1.184-.014.9.9,0,0,0-.385.264,1.444,1.444,0,0,0-.242.4,3.174,3.174,0,0,0-.157.543,2.831,2.831,0,0,0-.067.573,1.232,1.232,0,0,0,.079.447.567.567,0,0,0,.274.3,1.081,1.081,0,0,0,.506.1.792.792,0,0,0,.427-.111.938.938,0,0,0,.31-.352l-.08.386.917,0,.671-3.228a1.436,1.436,0,0,0-.076-1.04Q172.153,219.614,171.425,219.616Zm-.275,3.2c-.017.083-.033.151-.047.2a1.175,1.175,0,0,1-.064.176.5.5,0,0,1-.1.151.441.441,0,0,1-.138.091.487.487,0,0,1-.2.038q-.239,0-.285-.141a.842.842,0,0,1,.01-.41,1.933,1.933,0,0,1,.055-.214.93.93,0,0,1,.084-.184.377.377,0,0,1,.145-.144.431.431,0,0,1,.211-.05.6.6,0,0,1,.4.119Z" transform="translate(-137.096 -173.454)" fill="#797d8e"/>
  <path id="Caminho_1526" data-name="Caminho 1526" d="M183.359,220a.479.479,0,0,0-.535-.406,1.344,1.344,0,0,0-.473.079,1.1,1.1,0,0,0-.353.207,1.271,1.271,0,0,0-.257.331,2.334,2.334,0,0,0-.183.418,4.824,4.824,0,0,0-.129.5l-.34,1.636a4.159,4.159,0,0,0-.076.5,1.809,1.809,0,0,0,.012.415.767.767,0,0,0,.121.332.622.622,0,0,0,.27.209,1.111,1.111,0,0,0,.442.076.781.781,0,0,0,.694-.418l-.078.374q-.14.673-.525.674a2.224,2.224,0,0,1-.836-.107l-.208.741a2.008,2.008,0,0,0,1.03.2,1.236,1.236,0,0,0,.974-.39,2.406,2.406,0,0,0,.494-1.118l.952-4.577-.929,0Zm-.224,1.077-.342,1.644c-.019.091-.037.166-.054.227a1.734,1.734,0,0,1-.067.193.6.6,0,0,1-.095.163.415.415,0,0,1-.134.1.424.424,0,0,1-.186.04.411.411,0,0,1-.17-.029.229.229,0,0,1-.1-.077.249.249,0,0,1-.035-.132.925.925,0,0,1,.007-.166q.011-.081.037-.21l.367-1.765a1.341,1.341,0,0,1,.17-.478.394.394,0,0,1,.344-.143.252.252,0,0,1,.223.1.359.359,0,0,1,.065.219A2.47,2.47,0,0,1,183.136,221.077Z" transform="translate(-145.184 -173.438)" fill="#797d8e"/>
  <path id="Caminho_1527" data-name="Caminho 1527" d="M195.345,219.539a2.061,2.061,0,0,0-.656.1,1.122,1.122,0,0,0-.458.283,1.528,1.528,0,0,0-.285.416,2.5,2.5,0,0,0-.171.542l-.053.253.921,0,.055-.264a.822.822,0,0,1,.148-.363.412.412,0,0,1,.327-.114c.165,0,.26.045.287.137a1.094,1.094,0,0,1-.029.47l-.131.631a1.669,1.669,0,0,0-.624-.1,1.643,1.643,0,0,0-.56.087.906.906,0,0,0-.385.264,1.446,1.446,0,0,0-.242.4,3.159,3.159,0,0,0-.157.542,2.786,2.786,0,0,0-.067.573,1.234,1.234,0,0,0,.078.447.567.567,0,0,0,.274.3,1.076,1.076,0,0,0,.506.1.794.794,0,0,0,.427-.111.944.944,0,0,0,.31-.352l-.081.385.917,0,.671-3.227a1.437,1.437,0,0,0-.077-1.04Q196.073,219.537,195.345,219.539Zm-.275,3.2c-.017.083-.033.15-.047.2a1.178,1.178,0,0,1-.064.176.5.5,0,0,1-.1.151.441.441,0,0,1-.138.091.487.487,0,0,1-.2.039q-.239,0-.285-.141a.843.843,0,0,1,.01-.41,2.015,2.015,0,0,1,.055-.214.941.941,0,0,1,.084-.183.376.376,0,0,1,.145-.144.432.432,0,0,1,.211-.05.6.6,0,0,1,.4.119Z" transform="translate(-153.831 -173.4)" fill="#797d8e"/>
  <path id="Caminho_1528" data-name="Caminho 1528" d="M208.091,219.8a.614.614,0,0,0-.265-.2,1.053,1.053,0,0,0-.424-.074.755.755,0,0,0-.708.387l.065-.31-.925,0-.944,4.543.925,0,.652-3.137a1.374,1.374,0,0,1,.174-.484.391.391,0,0,1,.344-.152q.247,0,.286.131a1.062,1.062,0,0,1-.028.457l-.661,3.182.925,0,.645-3.1a4.178,4.178,0,0,0,.075-.491,1.8,1.8,0,0,0-.012-.414A.758.758,0,0,0,208.091,219.8Z" transform="translate(-161.962 -173.388)" fill="#797d8e"/>
  <path id="Caminho_1529" data-name="Caminho 1529" d="M219.834,217.613a.475.475,0,0,0-.529-.4,1.349,1.349,0,0,0-.475.081,1.131,1.131,0,0,0-.358.213,1.342,1.342,0,0,0-.262.333,2.207,2.207,0,0,0-.183.409,4.232,4.232,0,0,0-.123.469l-.35,1.685a4.3,4.3,0,0,0-.078.5,1.7,1.7,0,0,0,.011.411.729.729,0,0,0,.121.324.6.6,0,0,0,.268.2,1.155,1.155,0,0,0,.441.072.8.8,0,0,0,.709-.41l-.069.333.925,0,1.162-5.588h-.925Zm-.212,1.02-.368,1.769c-.022.108-.044.2-.065.263a.975.975,0,0,1-.09.2.363.363,0,0,1-.148.146.478.478,0,0,1-.218.046c-.165,0-.26-.047-.287-.141a1.121,1.121,0,0,1,.029-.474l.366-1.765c.018-.086.035-.157.05-.212a1.308,1.308,0,0,1,.062-.169.368.368,0,0,1,.22-.21.506.506,0,0,1,.182-.031.378.378,0,0,1,.187.039.184.184,0,0,1,.089.123.65.65,0,0,1,.018.178A1.676,1.676,0,0,1,219.622,218.634Z" transform="translate(-170.763 -171.095)" fill="#797d8e"/>
  <path id="Caminho_1530" data-name="Caminho 1530" d="M231.752,219.421a2.062,2.062,0,0,0-.656.1,1.127,1.127,0,0,0-.458.283,1.526,1.526,0,0,0-.285.416,2.5,2.5,0,0,0-.171.542l-.053.253.921,0,.055-.264a.819.819,0,0,1,.149-.363.411.411,0,0,1,.327-.114c.165,0,.26.045.287.137a1.1,1.1,0,0,1-.029.47l-.132.631a1.669,1.669,0,0,0-.624-.1,1.644,1.644,0,0,0-.56.087.91.91,0,0,0-.385.264,1.438,1.438,0,0,0-.242.4,3.132,3.132,0,0,0-.157.542,2.8,2.8,0,0,0-.067.573,1.24,1.24,0,0,0,.078.447.568.568,0,0,0,.274.3,1.077,1.077,0,0,0,.506.1.793.793,0,0,0,.427-.111.941.941,0,0,0,.31-.352l-.08.386.917,0,.671-3.228a1.436,1.436,0,0,0-.077-1.04Q232.48,219.419,231.752,219.421Zm-.275,3.2c-.017.083-.033.15-.047.2a1.178,1.178,0,0,1-.064.176.5.5,0,0,1-.1.151.448.448,0,0,1-.138.091.488.488,0,0,1-.2.039c-.159,0-.254-.046-.285-.141a.847.847,0,0,1,.01-.41,2.013,2.013,0,0,1,.055-.214.945.945,0,0,1,.084-.183.377.377,0,0,1,.145-.144.434.434,0,0,1,.211-.05.6.6,0,0,1,.4.119Z" transform="translate(-179.302 -173.317)" fill="#797d8e"/>
  <path id="Caminho_1531" data-name="Caminho 1531" d="M249.58,217.584a.475.475,0,0,0-.529-.395,1.351,1.351,0,0,0-.475.081,1.124,1.124,0,0,0-.358.213,1.347,1.347,0,0,0-.261.333,2.234,2.234,0,0,0-.184.408,4.324,4.324,0,0,0-.122.469l-.351,1.685a4.459,4.459,0,0,0-.078.5,1.7,1.7,0,0,0,.011.412.733.733,0,0,0,.121.324.6.6,0,0,0,.268.2,1.146,1.146,0,0,0,.441.072.8.8,0,0,0,.709-.41l-.069.333.925,0,1.156-5.559h-.925Zm-.212,1.02L249,220.373q-.034.163-.065.263a1,1,0,0,1-.09.2.367.367,0,0,1-.148.146.475.475,0,0,1-.219.046c-.165,0-.26-.047-.287-.141a1.124,1.124,0,0,1,.029-.474l.367-1.765q.027-.129.05-.212a1.292,1.292,0,0,1,.062-.169.366.366,0,0,1,.22-.21.505.505,0,0,1,.182-.031.376.376,0,0,1,.187.039.185.185,0,0,1,.09.122.656.656,0,0,1,.018.178A1.683,1.683,0,0,1,249.367,218.6Z" transform="translate(-191.574 -171.095)" fill="#797d8e"/>
  <path id="Caminho_1532" data-name="Caminho 1532" d="M278.765,219.291l0,0v0a.84.84,0,0,0-.734.47l.082-.393-.926,0-.945,4.543.925,0,.627-3.016q.173-.734.676-.735h0a.6.6,0,0,1,.145.017.4.4,0,0,1,.105.037l.069.041.037.024.191-.918A.388.388,0,0,0,278.765,219.291Z" transform="translate(-211.88 -173.226)" fill="#797d8e"/>
  <path id="Caminho_1533" data-name="Caminho 1533" d="M299.152,219.329a1.514,1.514,0,0,0-.7-.125,2.2,2.2,0,0,0-.579.072,1.406,1.406,0,0,0-.412.179,1,1,0,0,0-.272.282,1.577,1.577,0,0,0-.171.339,3.142,3.142,0,0,0-.1.387,1.146,1.146,0,0,0-.009.466.976.976,0,0,0,.15.366,1.8,1.8,0,0,0,.248.286q.142.134.285.251a3.347,3.347,0,0,1,.257.231.776.776,0,0,1,.172.258.517.517,0,0,1,.025.305q-.088.424-.415.425-.238,0-.275-.149a1.379,1.379,0,0,1,.042-.523l-.929,0a3.368,3.368,0,0,0-.083.657,1.06,1.06,0,0,0,.1.47.606.606,0,0,0,.341.3,1.746,1.746,0,0,0,.635.095,1.592,1.592,0,0,0,1.066-.309,1.711,1.711,0,0,0,.488-.969,1.27,1.27,0,0,0,.013-.487,1.009,1.009,0,0,0-.149-.388,1.977,1.977,0,0,0-.251-.3,3.684,3.684,0,0,0-.291-.259q-.149-.119-.268-.229a.782.782,0,0,1-.18-.241.416.416,0,0,1-.032-.266.594.594,0,0,1,.141-.286.366.366,0,0,1,.281-.116q.2,0,.238.147a1.109,1.109,0,0,1-.027.453h.908a2.327,2.327,0,0,0,.053-.88A.6.6,0,0,0,299.152,219.329Z" transform="translate(-225.975 -173.165)" fill="#797d8e"/>
  <path id="Caminho_1534" data-name="Caminho 1534" d="M309.737,222.668a1.165,1.165,0,0,1-.169.411.385.385,0,0,1-.323.127.434.434,0,0,1-.176-.029.221.221,0,0,1-.1-.075.254.254,0,0,1-.033-.134.893.893,0,0,1,.01-.166q.011-.077.039-.21l.657-3.159-.925,0-.643,3.092a4.415,4.415,0,0,0-.077.493,1.786,1.786,0,0,0,.01.415.756.756,0,0,0,.121.332.623.623,0,0,0,.271.207,1.109,1.109,0,0,0,.442.076.781.781,0,0,0,.692-.41l-.07.336.921,0,.945-4.543-.921,0Z" transform="translate(-234.094 -173.324)" fill="#797d8e"/>
  <path id="Caminho_1535" data-name="Caminho 1535" d="M319.52,221.74l.925,0,1.142-5.493h-.925Z" transform="translate(-242.161 -171.094)" fill="#797d8e"/>
  <path id="Caminho_1536" data-name="Caminho 1536" d="M328.119,217.187l-.456,0-.171.82.457,0-.478,2.3a3.813,3.813,0,0,0-.086.621,1.318,1.318,0,0,0,.061.464.53.53,0,0,0,.263.313,1.1,1.1,0,0,0,.517.1,1.522,1.522,0,0,0,.827-.256l.1-.737a1.276,1.276,0,0,1-.6.161.175.175,0,0,1-.2-.147,1.59,1.59,0,0,1,.051-.525l.478-2.3.683,0,.17-.82-.682,0,.2-.94h-.933Z" transform="translate(-247.663 -171.095)" fill="#797d8e"/>
  <path id="Caminho_1537" data-name="Caminho 1537" d="M337.672,219.078a2.045,2.045,0,0,0-.656.1,1.122,1.122,0,0,0-.458.283,1.519,1.519,0,0,0-.285.416,2.5,2.5,0,0,0-.171.542l-.053.253.921,0,.055-.264a.823.823,0,0,1,.149-.363.411.411,0,0,1,.327-.114q.247,0,.287.137a1.1,1.1,0,0,1-.029.47l-.131.631a1.927,1.927,0,0,0-1.184-.014.906.906,0,0,0-.385.264,1.44,1.44,0,0,0-.242.4,3.162,3.162,0,0,0-.157.542,2.782,2.782,0,0,0-.067.573,1.231,1.231,0,0,0,.079.447.565.565,0,0,0,.274.3,1.075,1.075,0,0,0,.506.1.791.791,0,0,0,.427-.111.938.938,0,0,0,.31-.352l-.08.386.917,0,.671-3.228a1.438,1.438,0,0,0-.076-1.04Q338.4,219.075,337.672,219.078Zm-.275,3.2c-.017.083-.033.15-.047.2a1.177,1.177,0,0,1-.064.176.5.5,0,0,1-.1.151.441.441,0,0,1-.138.091.483.483,0,0,1-.2.039c-.159,0-.254-.046-.284-.141a.842.842,0,0,1,.01-.41,1.935,1.935,0,0,1,.055-.214.931.931,0,0,1,.084-.184.378.378,0,0,1,.145-.144.434.434,0,0,1,.211-.05.6.6,0,0,1,.4.12Z" transform="translate(-253.405 -173.077)" fill="#797d8e"/>
  <path id="Caminho_1538" data-name="Caminho 1538" d="M350.239,216.244l-.258,1.243a.475.475,0,0,0-.529-.395,1.336,1.336,0,0,0-.475.081,1.12,1.12,0,0,0-.358.213,1.34,1.34,0,0,0-.262.333,2.191,2.191,0,0,0-.183.409,4.177,4.177,0,0,0-.123.469l-.351,1.685a4.368,4.368,0,0,0-.078.5,1.718,1.718,0,0,0,.01.412.731.731,0,0,0,.121.324.6.6,0,0,0,.268.2,1.155,1.155,0,0,0,.441.072.793.793,0,0,0,.709-.41l-.069.333.925,0,1.136-5.461Zm-.47,2.263-.368,1.769c-.023.108-.044.2-.065.263a.97.97,0,0,1-.09.2.365.365,0,0,1-.147.146.476.476,0,0,1-.219.047q-.247,0-.286-.141a1.12,1.12,0,0,1,.029-.474l.367-1.765q.027-.129.05-.212a1.257,1.257,0,0,1,.062-.168.365.365,0,0,1,.22-.21.5.5,0,0,1,.182-.031.377.377,0,0,1,.187.039.184.184,0,0,1,.089.123.63.63,0,0,1,.018.178A1.666,1.666,0,0,1,349.768,218.507Z" transform="translate(-261.816 -171.095)" fill="#797d8e"/>
  <path id="Caminho_1539" data-name="Caminho 1539" d="M362.761,219.265a.809.809,0,0,0-.336-.195,1.688,1.688,0,0,0-.53-.071,1.959,1.959,0,0,0-.67.106,1.149,1.149,0,0,0-.471.311,1.724,1.724,0,0,0-.3.46,3.107,3.107,0,0,0-.184.6l-.365,1.754a3.19,3.19,0,0,0-.067.485,1.277,1.277,0,0,0,.04.4.694.694,0,0,0,.173.313.831.831,0,0,0,.342.195,1.735,1.735,0,0,0,.533.07,1.973,1.973,0,0,0,.673-.106,1.123,1.123,0,0,0,.464-.311,1.693,1.693,0,0,0,.288-.458,3.262,3.262,0,0,0,.18-.6l.365-1.754a3.2,3.2,0,0,0,.068-.487,1.349,1.349,0,0,0-.038-.4A.681.681,0,0,0,362.761,219.265Zm-.788,1.192-.37,1.78a1.335,1.335,0,0,1-.167.471.391.391,0,0,1-.341.139.422.422,0,0,1-.176-.03.23.23,0,0,1-.1-.073.237.237,0,0,1-.033-.131.829.829,0,0,1,.008-.162c.008-.05.021-.12.039-.208l.371-1.783a1.328,1.328,0,0,1,.168-.473.394.394,0,0,1,.345-.141.414.414,0,0,1,.2.039.177.177,0,0,1,.088.13.682.682,0,0,1,.008.184C362.01,220.26,362,220.346,361.973,220.457Z" transform="translate(-270.369 -173.022)" fill="#797d8e"/>
  <path id="Caminho_1540" data-name="Caminho 1540" d="M261.211,222.611a1.135,1.135,0,0,1-.16.415.4.4,0,0,1-.349.147c-.165,0-.262-.047-.291-.141a1.03,1.03,0,0,1,.023-.463l.087-.419,1.776-.353.214-1.028a2.586,2.586,0,0,0,.063-.574,1.12,1.12,0,0,0-.1-.451.635.635,0,0,0-.339-.313,1.572,1.572,0,0,0-.633-.105,2.02,2.02,0,0,0-.672.1,1.132,1.132,0,0,0-.467.306,1.66,1.66,0,0,0-.293.454,3.13,3.13,0,0,0-.181.6l-.369,1.776a3.133,3.133,0,0,0-.068.487,1.276,1.276,0,0,0,.04.4.686.686,0,0,0,.172.311.83.83,0,0,0,.341.193,1.718,1.718,0,0,0,.534.07,1.929,1.929,0,0,0,.673-.108,1.136,1.136,0,0,0,.465-.313,1.7,1.7,0,0,0,.286-.45,3.041,3.041,0,0,0,.175-.58l.032-.154Zm-.4-1.837a1.237,1.237,0,0,1,.17-.465.511.511,0,0,1,.553-.094.192.192,0,0,1,.093.133.6.6,0,0,1,.011.179,2.115,2.115,0,0,1-.038.233l-.093.45-.823.176Z" transform="translate(-200.134 -173.25)" fill="#797d8e"/>
  <path id="Caminho_1541" data-name="Caminho 1541" d="M286.831,222.611a1.135,1.135,0,0,1-.16.415.4.4,0,0,1-.349.147q-.247,0-.291-.141a1.026,1.026,0,0,1,.023-.463l.087-.419,1.776-.353.214-1.028a2.6,2.6,0,0,0,.063-.574,1.124,1.124,0,0,0-.1-.451.636.636,0,0,0-.339-.313,1.572,1.572,0,0,0-.633-.105,2.022,2.022,0,0,0-.672.1,1.132,1.132,0,0,0-.467.306,1.659,1.659,0,0,0-.293.454,3.156,3.156,0,0,0-.181.6l-.369,1.776a3.13,3.13,0,0,0-.068.487,1.284,1.284,0,0,0,.04.4.685.685,0,0,0,.172.311.829.829,0,0,0,.341.193,1.718,1.718,0,0,0,.533.07,1.929,1.929,0,0,0,.673-.108,1.137,1.137,0,0,0,.465-.313,1.707,1.707,0,0,0,.286-.45,3.016,3.016,0,0,0,.175-.58l.032-.154Zm-.4-1.837a1.232,1.232,0,0,1,.17-.465.511.511,0,0,1,.553-.094.191.191,0,0,1,.093.133.616.616,0,0,1,.011.179,2.27,2.27,0,0,1-.038.233l-.094.45-.823.176Z" transform="translate(-218.058 -173.25)" fill="#797d8e"/>
  <path id="Caminho_1542" data-name="Caminho 1542" d="M176.174,65.99H166.045l-.208,1.019a.767.767,0,0,0,.3.773l.539.392a1.247,1.247,0,0,1,.484,1.282l-3.389,16.82h0a7.9,7.9,0,0,0-7.727-9.361h-7.577a11.683,11.683,0,0,0-11.542,9.394l-2.241,11.113a7.806,7.806,0,0,0,.143,3.664l-1.505.488a1.677,1.677,0,0,1-2.16-1.93L137.324,69.4a2.883,2.883,0,0,0-2.824-3.459h-8.206l-.207,1.016a.771.771,0,0,0,.3.778l.537.39a1.247,1.247,0,0,1,.484,1.282L125,80.905a7.753,7.753,0,0,0-4.8-3.464l-1.611-.332a9.2,9.2,0,0,0-10.868,7.153L104.757,98.6a6.934,6.934,0,0,0-.033,2.636l-.759.251a1.849,1.849,0,0,1-2.392-2.125L107.682,69.4a2.883,2.883,0,0,0-2.824-3.458h-10l-.162.8a.9.9,0,0,0,.334.9,4.107,4.107,0,0,1,.386,6.176L61.982,107.058H76.034l4.02-4H90.076l-.269,1.867a2.9,2.9,0,0,0,3.78,3.166l12.308-4.065h0a6.935,6.935,0,0,0,4.274,2.8l.031.006a12.242,12.242,0,0,0,9.875-2.345l-.1.442a2.9,2.9,0,0,0,3.779,3.166l12.556-4.119a8.251,8.251,0,0,0,2.726,2.226,7.97,7.97,0,0,0,3.6.858,19.983,19.983,0,0,0,6.265-1.008l8.429-2.784a5.836,5.836,0,0,0,1.481-.738,5.274,5.274,0,0,0,3.616,5.618c2.706.718,5.568-1.217,6.392-4.322s-.7-6.2-3.409-6.921a5.144,5.144,0,0,0-5.537,2.41L149.019,102.9a3,3,0,0,1-3.607-1.386,2.783,2.783,0,0,1,1.581-3.952l4.759-1.572h0l10.778-3.559h0l-.325,1.613A7.574,7.574,0,0,1,166.182,94a7.471,7.471,0,0,1,3.223,1.8L179,69.449A2.883,2.883,0,0,0,176.174,65.99ZM90.5,100.08H83.051l8.662-8.613ZM123.945,85.6l-2.817,13.664a2.941,2.941,0,0,1-3.475,2.287,2.777,2.777,0,0,1-2.159-3.281l2.85-13.824a2.778,2.778,0,0,1,3.281-2.16l.16.033A2.778,2.778,0,0,1,123.945,85.6Zm29.948,0-1.454,7.053-6.266,2.069,2.119-10.277a2.778,2.778,0,0,1,3.281-2.16l.16.033A2.778,2.778,0,0,1,153.893,85.6Z" transform="translate(-61.982 -65.937)" fill="#797d8e"/>
</svg>
