<svg xmlns="http://www.w3.org/2000/svg" width="204.222" height="81.089" viewBox="0 0 204.222 81.089">
  <g id="Grupo_45" data-name="Grupo 45" transform="translate(-229.054 666.855)">
    <g id="Grupo_1" data-name="Grupo 1" transform="translate(229.054 -665.513)">
      <path id="Caminho_1" data-name="Caminho 1" d="M236.73-617.1h-4.6a3.075,3.075,0,0,1-3.071-3.071v-30.046l9.842-10.562.905.014v40.593A3.075,3.075,0,0,1,236.73-617.1Zm-6.572-32.682v29.611a1.969,1.969,0,0,0,1.967,1.967h4.6a1.969,1.969,0,0,0,1.967-1.967v-38.774Z" transform="translate(-229.054 660.779)" fill="#fff"/>
    </g>
    <g id="Grupo_2" data-name="Grupo 2" transform="translate(238.22 -622.939)">
      <path id="Caminho_2" data-name="Caminho 2" d="M277.3-430.826a6.819,6.819,0,0,1-2.548-.5,6.582,6.582,0,0,1-4.2-6.212v-22.579a7.889,7.889,0,0,1,7.88-7.88H315l0,.954L282.082-432.9A6.589,6.589,0,0,1,277.3-430.826Zm1.135-36.068a6.783,6.783,0,0,0-6.775,6.775v22.579a5.5,5.5,0,0,0,3.505,5.187,5.5,5.5,0,0,0,6.12-1.317l32.043-33.225Z" transform="translate(-270.557 467.998)" fill="#fff"/>
    </g>
    <g id="Grupo_3" data-name="Grupo 3" transform="translate(238.697 -665.508)">
      <path id="Caminho_3" data-name="Caminho 3" d="M291.045-633.806H272.719v-26.948h36.067a7.921,7.921,0,0,1,5.862,2.6l.353.39Zm-17.222-1.1h16.764l22.875-22.875a6.816,6.816,0,0,0-4.677-1.864H273.823Z" transform="translate(-272.719 660.754)" fill="#fff"/>
    </g>
    <g id="Grupo_4" data-name="Grupo 4" transform="translate(255.467 -663.336)">
      <path id="Caminho_4" data-name="Caminho 4" d="M375.856-609.418H349.434v-16.725h-.781l.937-.943,23.833-23.833.389.43a7.887,7.887,0,0,1,2.043,5.3Zm-25.318-1.1h24.213v-34.664a6.782,6.782,0,0,0-1.385-4.114l-22.828,22.828Z" transform="translate(-348.653 650.919)" fill="#fff"/>
    </g>
    <g id="Grupo_5" data-name="Grupo 5" transform="translate(287.417 -666.017)">
      <path id="Caminho_5" data-name="Caminho 5" d="M531.717-618.439h-8.971v-9.347H505.032v9.347h-11.7V-642.5a20.585,20.585,0,0,1,20.562-20.562,20.664,20.664,0,0,1,17.752,10.2l.076.129Zm-7.867-1.1h6.763v-32.892a19.556,19.556,0,0,0-16.724-9.523A19.48,19.48,0,0,0,494.431-642.5v22.958h9.5v-9.347H523.85Zm0-18.843H503.927V-642.5a9.972,9.972,0,0,1,9.961-9.961,9.972,9.972,0,0,1,9.961,9.961Zm-18.818-1.1h17.714V-642.5a8.867,8.867,0,0,0-8.857-8.857,8.867,8.867,0,0,0-8.857,8.857Z" transform="translate(-493.327 663.062)" fill="#fff"/>
    </g>
    <g id="Grupo_6" data-name="Grupo 6" transform="translate(324.703 -666.017)">
      <path id="Caminho_6" data-name="Caminho 6" d="M673.864-618.439h-8.971V-642.5a19.41,19.41,0,0,0-2.658-9.806l-.076-.129v-10.627h23.485a17.555,17.555,0,0,1,9.488,2.781l.158.1,7.195,20-.058.18a17.6,17.6,0,0,1-16.782,12.216h-11.78Zm-7.867-1.1h6.763v-9.347h12.884a16.5,16.5,0,0,0,15.673-11.274l-6.938-19.288a16.453,16.453,0,0,0-8.735-2.506H663.263v9.224A20.517,20.517,0,0,1,666-642.5Zm19.647-18.843H672.76v-14.076h12.884a7.046,7.046,0,0,1,7.038,7.038A7.046,7.046,0,0,1,685.644-638.386Zm-11.78-1.1h11.78a5.941,5.941,0,0,0,5.934-5.934,5.941,5.941,0,0,0-5.934-5.934h-11.78Z" transform="translate(-662.159 663.062)" fill="#fff"/>
    </g>
    <g id="Grupo_7" data-name="Grupo 7" transform="translate(324.703 -657.575)">
      <path id="Caminho_7" data-name="Caminho 7" d="M666-588.653h-3.838v-36.181l1.029,1.755A20.516,20.516,0,0,1,666-612.715Zm-2.734-1.1h1.629v-22.958a19.426,19.426,0,0,0-1.629-7.788Z" transform="translate(-662.159 624.834)" fill="#fff"/>
    </g>
    <g id="Grupo_8" data-name="Grupo 8" transform="translate(387.216 -666.855)">
      <path id="Caminho_8" data-name="Caminho 8" d="M968.254-620.794a23.056,23.056,0,0,1-23.03-23.03,23.056,23.056,0,0,1,23.03-23.03,23.056,23.056,0,0,1,23.03,23.03A23.056,23.056,0,0,1,968.254-620.794Zm0-44.956a21.951,21.951,0,0,0-21.926,21.926A21.951,21.951,0,0,0,968.254-621.9a21.951,21.951,0,0,0,21.926-21.926A21.951,21.951,0,0,0,968.254-665.751Zm0,34.356a12.444,12.444,0,0,1-12.43-12.43,12.444,12.444,0,0,1,12.43-12.43,12.444,12.444,0,0,1,12.43,12.43A12.444,12.444,0,0,1,968.254-631.395Zm0-23.755a11.338,11.338,0,0,0-11.326,11.326A11.338,11.338,0,0,0,968.254-632.5a11.338,11.338,0,0,0,11.325-11.326A11.338,11.338,0,0,0,968.254-655.15Z" transform="translate(-945.224 666.855)" fill="#fff"/>
    </g>
    <g id="Grupo_9" data-name="Grupo 9" transform="translate(355.623 -666.017)">
      <path id="Caminho_9" data-name="Caminho 9" d="M834.179-618.439h-4.26a16.679,16.679,0,0,1-15.656-11.006l-3.855-10.718.058-.179a16.48,16.48,0,0,0,.8-5.082,16.483,16.483,0,0,0-7.642-13.928l-.158-.1-1.3-3.609h12.439l2.479,6.891h17.092v11.7H821.3l3.979,11.06a4.946,4.946,0,0,0,4.642,3.263h4.26Zm-22.605-21.744,3.728,10.364a15.573,15.573,0,0,0,14.617,10.276h3.156v-9.5h-3.156a6.052,6.052,0,0,1-5.681-3.994l-4.511-12.538h13.348v-9.5H816.311l-2.479-6.891H803.74l.64,1.779a17.58,17.58,0,0,1,7.992,14.755A17.57,17.57,0,0,1,811.573-640.183Z" transform="translate(-802.169 663.062)" fill="#fff"/>
    </g>
    <g id="Grupo_10" data-name="Grupo 10" transform="translate(356.308 -664.113)">
      <path id="Caminho_10" data-name="Caminho 10" d="M813.436-631.744l-8.164-22.693,1.367.876A17.583,17.583,0,0,1,814.79-638.7a17.582,17.582,0,0,1-.856,5.422Zm-5.976-19.873,5.871,16.319a16.477,16.477,0,0,0,.355-3.4A16.459,16.459,0,0,0,807.46-651.617Z" transform="translate(-805.272 654.437)" fill="#fff"/>
    </g>
    <g id="Grupo_44" data-name="Grupo 44" transform="translate(287.915 -618.24)">
      <g id="Grupo_11" data-name="Grupo 11" transform="translate(0 1.271)">
        <path id="Caminho_11" data-name="Caminho 11" d="M499.09-440.966h.526v3.871h-.607v-2.818l-1.412,1.768-1.409-1.768v2.818h-.607v-3.871h.524l1.493,1.881Z" transform="translate(-495.581 440.966)" fill="#fff"/>
      </g>
      <g id="Grupo_12" data-name="Grupo 12" transform="translate(5.195 1.271)">
        <path id="Caminho_12" data-name="Caminho 12" d="M520.706-440.966h.607l1.6,3.871h-.634l-.416-1.023h-1.714l-.416,1.023H519.1Zm-.332,2.294h1.271l-.634-1.6Z" transform="translate(-519.103 440.966)" fill="#fff"/>
      </g>
      <g id="Grupo_13" data-name="Grupo 13" transform="translate(10.171 1.271)">
        <path id="Caminho_13" data-name="Caminho 13" d="M541.634-440.966h.607v3.871h-.607Z" transform="translate(-541.634 440.966)" fill="#fff"/>
      </g>
      <g id="Grupo_14" data-name="Grupo 14" transform="translate(12.048 1.217)">
        <path id="Caminho_14" data-name="Caminho 14" d="M552.177-438.691a.782.782,0,0,0-.293-.189,3.515,3.515,0,0,0-.4-.124,4.321,4.321,0,0,1-.437-.136,2.124,2.124,0,0,1-.4-.194.85.85,0,0,1-.293-.322,1.044,1.044,0,0,1-.113-.5.956.956,0,0,1,.343-.749,1.357,1.357,0,0,1,.928-.3,1.608,1.608,0,0,1,.414.053,1.493,1.493,0,0,1,.329.124,2.124,2.124,0,0,1,.229.143.947.947,0,0,1,.145.123l.043.054-.386.389c-.007-.007-.017-.019-.031-.036a.6.6,0,0,0-.092-.081,1.119,1.119,0,0,0-.154-.1.978.978,0,0,0-.216-.08,1.1,1.1,0,0,0-.282-.035.738.738,0,0,0-.482.149.438.438,0,0,0-.182.348.423.423,0,0,0,.113.3.772.772,0,0,0,.293.19,3.582,3.582,0,0,0,.4.124,4.527,4.527,0,0,1,.437.135,2.059,2.059,0,0,1,.4.193.849.849,0,0,1,.293.324,1.046,1.046,0,0,1,.113.5,1.065,1.065,0,0,1-.367.837,1.482,1.482,0,0,1-1.015.324,1.948,1.948,0,0,1-.5-.064,1.665,1.665,0,0,1-.393-.151,2.207,2.207,0,0,1-.267-.177,1.246,1.246,0,0,1-.164-.148l-.054-.067.386-.386c.007.011.019.027.036.047a1.134,1.134,0,0,0,.116.108,1.168,1.168,0,0,0,.2.135,1.283,1.283,0,0,0,.279.105,1.4,1.4,0,0,0,.368.047.851.851,0,0,0,.567-.176.546.546,0,0,0,.208-.434A.418.418,0,0,0,552.177-438.691Z" transform="translate(-550.134 441.211)" fill="#fff"/>
      </g>
      <g id="Grupo_15" data-name="Grupo 15" transform="translate(17.518 1.218)">
        <path id="Caminho_15" data-name="Caminho 15" d="M575.495-440.633a2,2,0,0,1,1.456-.577,2,2,0,0,1,1.456.577,1.9,1.9,0,0,1,.589,1.412,2,2,0,0,1-.113.68,1.658,1.658,0,0,1-.275.509,2.785,2.785,0,0,1-.325.332,1.316,1.316,0,0,1-.279.193l-.111.062a.5.5,0,0,0,.035.057,1.138,1.138,0,0,0,.119.127.946.946,0,0,0,.213.155,1.228,1.228,0,0,0,.332.105,1.656,1.656,0,0,0,.462.02v.5a2,2,0,0,1-.647-.028,1.528,1.528,0,0,1-.5-.187,2.76,2.76,0,0,1-.335-.246,1.145,1.145,0,0,1-.205-.219l-.059-.095a2.64,2.64,0,0,1-.359.027,2,2,0,0,1-1.458-.578,1.9,1.9,0,0,1-.589-1.412A1.9,1.9,0,0,1,575.495-440.633Zm.436,2.432a1.385,1.385,0,0,0,1.02.418,1.385,1.385,0,0,0,1.021-.418,1.39,1.39,0,0,0,.417-1.02,1.387,1.387,0,0,0-.417-1.019,1.388,1.388,0,0,0-1.021-.417,1.388,1.388,0,0,0-1.02.417,1.387,1.387,0,0,0-.417,1.019A1.39,1.39,0,0,0,575.93-438.2Z" transform="translate(-574.906 441.21)" fill="#fff"/>
      </g>
      <g id="Grupo_16" data-name="Grupo 16" transform="translate(22.988 1.271)">
        <path id="Caminho_16" data-name="Caminho 16" d="M602.024-437.9a1.021,1.021,0,0,0,.3-.74v-2.324h.61v2.324a1.53,1.53,0,0,1-.476,1.132,1.588,1.588,0,0,1-1.155.468,1.584,1.584,0,0,1-1.155-.47,1.531,1.531,0,0,1-.476-1.131v-2.324h.61v2.324a1.019,1.019,0,0,0,.3.741.973.973,0,0,0,.718.309A.971.971,0,0,0,602.024-437.9Z" transform="translate(-599.674 440.966)" fill="#fff"/>
      </g>
      <g id="Grupo_17" data-name="Grupo 17" transform="translate(27.797 1.271)">
        <path id="Caminho_17" data-name="Caminho 17" d="M624.238-437.648v.553h-2.791v-3.871h2.737v.553h-2.13v1.023h1.687v.553h-1.687v1.188Z" transform="translate(-621.447 440.966)" fill="#fff"/>
      </g>
      <g id="Grupo_18" data-name="Grupo 18" transform="translate(33.516 1.271)">
        <path id="Caminho_18" data-name="Caminho 18" d="M647.345-440.966h.607v3.871h-.607Z" transform="translate(-647.345 440.966)" fill="#fff"/>
      </g>
      <g id="Grupo_19" data-name="Grupo 19" transform="translate(35.725 1.271)">
        <path id="Caminho_19" data-name="Caminho 19" d="M660.857-440.966h.526v3.871h-.607v-2.818l-1.412,1.768-1.409-1.768v2.818h-.607v-3.871h.524l1.492,1.881Z" transform="translate(-657.348 440.966)" fill="#fff"/>
      </g>
      <g id="Grupo_20" data-name="Grupo 20" transform="translate(41.141)">
        <path id="Caminho_20" data-name="Caminho 20" d="M682.46-444.928a2,2,0,0,1,1.456-.577,2,2,0,0,1,1.456.577,1.9,1.9,0,0,1,.589,1.412,1.9,1.9,0,0,1-.589,1.412,2,2,0,0,1-1.456.578,2,2,0,0,1-1.456-.578,1.9,1.9,0,0,1-.589-1.412A1.9,1.9,0,0,1,682.46-444.928Zm.436,2.432a1.384,1.384,0,0,0,1.02.418,1.385,1.385,0,0,0,1.02-.418,1.39,1.39,0,0,0,.417-1.02,1.387,1.387,0,0,0-.417-1.019,1.388,1.388,0,0,0-1.02-.417,1.388,1.388,0,0,0-1.02.417,1.387,1.387,0,0,0-.417,1.019A1.39,1.39,0,0,0,682.9-442.5Zm1.291-4.227h.58l-.58.775h-.416Z" transform="translate(-681.871 446.723)" fill="#fff"/>
      </g>
      <g id="Grupo_21" data-name="Grupo 21" transform="translate(46.004 1.271)">
        <path id="Caminho_21" data-name="Caminho 21" d="M703.89-440.966h.637l1.188,3.1,1.19-3.1h.635l-1.52,3.871h-.607Z" transform="translate(-703.89 440.966)" fill="#fff"/>
      </g>
      <g id="Grupo_22" data-name="Grupo 22" transform="translate(50.869 1.271)">
        <path id="Caminho_22" data-name="Caminho 22" d="M728.711-437.648v.553H725.92v-3.871h2.737v.553h-2.13v1.023h1.687v.553h-1.687v1.188Z" transform="translate(-725.92 440.966)" fill="#fff"/>
      </g>
      <g id="Grupo_23" data-name="Grupo 23" transform="translate(54.986 1.271)">
        <path id="Caminho_23" data-name="Caminho 23" d="M744.564-440.966h.607v3.871h-.607Z" transform="translate(-744.564 440.966)" fill="#fff"/>
      </g>
      <g id="Grupo_24" data-name="Grupo 24" transform="translate(56.863 1.217)">
        <path id="Caminho_24" data-name="Caminho 24" d="M755.106-438.691a.779.779,0,0,0-.293-.189,3.531,3.531,0,0,0-.4-.124,4.327,4.327,0,0,1-.437-.136,2.124,2.124,0,0,1-.4-.194.852.852,0,0,1-.293-.322,1.045,1.045,0,0,1-.114-.5.956.956,0,0,1,.343-.749,1.358,1.358,0,0,1,.928-.3,1.605,1.605,0,0,1,.414.053,1.477,1.477,0,0,1,.329.124,2.082,2.082,0,0,1,.229.143.947.947,0,0,1,.145.123l.043.054-.386.389-.031-.036a.582.582,0,0,0-.092-.081,1.1,1.1,0,0,0-.154-.1.98.98,0,0,0-.216-.08,1.108,1.108,0,0,0-.282-.035.738.738,0,0,0-.482.149.439.439,0,0,0-.182.348.423.423,0,0,0,.113.3.773.773,0,0,0,.293.19,3.582,3.582,0,0,0,.4.124,4.527,4.527,0,0,1,.437.135,2.068,2.068,0,0,1,.4.193.847.847,0,0,1,.293.324,1.046,1.046,0,0,1,.113.5,1.065,1.065,0,0,1-.367.837,1.483,1.483,0,0,1-1.015.324,1.949,1.949,0,0,1-.5-.064,1.66,1.66,0,0,1-.393-.151,2.173,2.173,0,0,1-.267-.177,1.247,1.247,0,0,1-.165-.148l-.054-.067.386-.386c.007.011.019.027.036.047a1.124,1.124,0,0,0,.116.108,1.157,1.157,0,0,0,.2.135,1.281,1.281,0,0,0,.279.105,1.4,1.4,0,0,0,.368.047.852.852,0,0,0,.567-.176.546.546,0,0,0,.208-.434A.418.418,0,0,0,755.106-438.691Z" transform="translate(-753.063 441.211)" fill="#fff"/>
      </g>
      <g id="Grupo_25" data-name="Grupo 25" transform="translate(60.401 4.478)">
        <path id="Caminho_25" data-name="Caminho 25" d="M770.13-426.168l-.691,1.1-.359-.192.553-1.19Z" transform="translate(-769.08 426.446)" fill="#fff"/>
      </g>
      <g id="Grupo_26" data-name="Grupo 26" transform="translate(64.157 1.218)">
        <path id="Caminho_26" data-name="Caminho 26" d="M788.7-441.133a1.738,1.738,0,0,1,.447.188,3.032,3.032,0,0,1,.309.218,1.321,1.321,0,0,1,.194.186l.059.076-.386.389-.047-.061a1.628,1.628,0,0,0-.142-.142,1.371,1.371,0,0,0-.237-.177,1.627,1.627,0,0,0-.331-.138,1.444,1.444,0,0,0-.431-.063,1.392,1.392,0,0,0-1.02.417,1.385,1.385,0,0,0-.418,1.019,1.39,1.39,0,0,0,.417,1.02,1.386,1.386,0,0,0,1.022.418,1.47,1.47,0,0,0,.433-.063,1.358,1.358,0,0,0,.343-.153,2.442,2.442,0,0,0,.24-.177,1.238,1.238,0,0,0,.155-.15l.043-.067.389.389a.974.974,0,0,1-.066.085,2.119,2.119,0,0,1-.2.185,2.3,2.3,0,0,1-.324.235,1.984,1.984,0,0,1-.448.185,1.979,1.979,0,0,1-.568.083,2,2,0,0,1-1.457-.578,1.9,1.9,0,0,1-.589-1.412,1.9,1.9,0,0,1,.589-1.412,2,2,0,0,1,1.457-.577A2.049,2.049,0,0,1,788.7-441.133Z" transform="translate(-786.09 441.21)" fill="#fff"/>
      </g>
      <g id="Grupo_27" data-name="Grupo 27" transform="translate(68.744 1.218)">
        <path id="Caminho_27" data-name="Caminho 27" d="M807.449-440.633a2,2,0,0,1,1.456-.577,2,2,0,0,1,1.456.577,1.9,1.9,0,0,1,.589,1.412,1.9,1.9,0,0,1-.589,1.412,2,2,0,0,1-1.456.578,2,2,0,0,1-1.456-.578,1.9,1.9,0,0,1-.589-1.412A1.9,1.9,0,0,1,807.449-440.633Zm.436,2.432a1.385,1.385,0,0,0,1.02.418,1.385,1.385,0,0,0,1.02-.418,1.39,1.39,0,0,0,.417-1.02,1.387,1.387,0,0,0-.417-1.019,1.389,1.389,0,0,0-1.02-.417,1.388,1.388,0,0,0-1.02.417,1.387,1.387,0,0,0-.417,1.019A1.39,1.39,0,0,0,807.885-438.2Z" transform="translate(-806.86 441.21)" fill="#fff"/>
      </g>
      <g id="Grupo_28" data-name="Grupo 28" transform="translate(74.217 1.271)">
        <path id="Caminho_28" data-name="Caminho 28" d="M834.929-440.966v3.871h-.524l-2.157-2.791v2.791h-.607v-3.871h.524l2.157,2.794v-2.794Z" transform="translate(-831.641 440.966)" fill="#fff"/>
      </g>
      <g id="Grupo_29" data-name="Grupo 29" transform="translate(78.777 1.217)">
        <path id="Caminho_29" data-name="Caminho 29" d="M854.333-438.691a.781.781,0,0,0-.293-.189,3.546,3.546,0,0,0-.4-.124,4.339,4.339,0,0,1-.437-.136,2.122,2.122,0,0,1-.4-.194.85.85,0,0,1-.293-.322,1.044,1.044,0,0,1-.114-.5.955.955,0,0,1,.343-.749,1.357,1.357,0,0,1,.928-.3,1.607,1.607,0,0,1,.414.053,1.486,1.486,0,0,1,.329.124,2.122,2.122,0,0,1,.229.143.929.929,0,0,1,.144.123l.043.054-.386.389a.457.457,0,0,1-.031-.036.6.6,0,0,0-.092-.081,1.122,1.122,0,0,0-.154-.1.984.984,0,0,0-.216-.08,1.105,1.105,0,0,0-.282-.035.738.738,0,0,0-.482.149.438.438,0,0,0-.182.348.423.423,0,0,0,.114.3.771.771,0,0,0,.293.19,3.577,3.577,0,0,0,.4.124,4.511,4.511,0,0,1,.438.135,2.077,2.077,0,0,1,.4.193.85.85,0,0,1,.293.324,1.046,1.046,0,0,1,.113.5,1.064,1.064,0,0,1-.367.837,1.482,1.482,0,0,1-1.015.324,1.951,1.951,0,0,1-.5-.064,1.668,1.668,0,0,1-.393-.151,2.187,2.187,0,0,1-.267-.177,1.235,1.235,0,0,1-.165-.148l-.054-.067.386-.386c.007.011.019.027.036.047a1.116,1.116,0,0,0,.116.108,1.178,1.178,0,0,0,.2.135,1.282,1.282,0,0,0,.279.105,1.4,1.4,0,0,0,.368.047.851.851,0,0,0,.567-.176.547.547,0,0,0,.208-.434A.418.418,0,0,0,854.333-438.691Z" transform="translate(-852.29 441.211)" fill="#fff"/>
      </g>
      <g id="Grupo_30" data-name="Grupo 30" transform="translate(82.314 1.271)">
        <path id="Caminho_30" data-name="Caminho 30" d="M871.236-440.966v.553h-1.161v3.317h-.607v-3.317h-1.161v-.553Z" transform="translate(-868.307 440.966)" fill="#fff"/>
      </g>
      <g id="Grupo_31" data-name="Grupo 31" transform="translate(86.405 1.271)">
        <path id="Caminho_31" data-name="Caminho 31" d="M886.829-440.966h1.63a1.228,1.228,0,0,1,.891.343,1.134,1.134,0,0,1,.354.848,1.2,1.2,0,0,1-.081.444.99.99,0,0,1-.194.325,2.151,2.151,0,0,1-.227.208.842.842,0,0,1-.194.122l-.078.035.885,1.547h-.664l-.829-1.493h-.885v1.493h-.607Zm2.083.736a.614.614,0,0,0-.452-.182h-1.023v1.271h1.023a.615.615,0,0,0,.452-.182.617.617,0,0,0,.182-.454A.616.616,0,0,0,888.912-440.23Z" transform="translate(-886.829 440.966)" fill="#fff"/>
      </g>
      <g id="Grupo_32" data-name="Grupo 32" transform="translate(90.714 1.271)">
        <path id="Caminho_32" data-name="Caminho 32" d="M908.691-437.9a1.022,1.022,0,0,0,.3-.74v-2.324h.61v2.324a1.53,1.53,0,0,1-.476,1.132,1.588,1.588,0,0,1-1.155.468,1.584,1.584,0,0,1-1.155-.47,1.53,1.53,0,0,1-.476-1.131v-2.324h.61v2.324a1.02,1.02,0,0,0,.3.741.973.973,0,0,0,.718.309A.972.972,0,0,0,908.691-437.9Z" transform="translate(-906.341 440.966)" fill="#fff"/>
      </g>
      <g id="Grupo_33" data-name="Grupo 33" transform="translate(95.522)">
        <path id="Caminho_33" data-name="Caminho 33" d="M928.115-445.452h.607v3.871h-.607Zm.524-1.271h.58l-.58.775h-.413Z" transform="translate(-928.115 446.723)" fill="#fff"/>
      </g>
      <g id="Grupo_34" data-name="Grupo 34" transform="translate(97.732 1.271)">
        <path id="Caminho_34" data-name="Caminho 34" d="M941.627-440.966h.526v3.871h-.607v-2.818l-1.412,1.768-1.409-1.768v2.818h-.607v-3.871h.524l1.493,1.881Z" transform="translate(-938.118 440.966)" fill="#fff"/>
      </g>
      <g id="Grupo_35" data-name="Grupo 35" transform="translate(103.147 1.218)">
        <path id="Caminho_35" data-name="Caminho 35" d="M963.23-440.633a2,2,0,0,1,1.456-.577,2,2,0,0,1,1.456.577,1.9,1.9,0,0,1,.589,1.412,1.9,1.9,0,0,1-.589,1.412,2,2,0,0,1-1.456.578,2,2,0,0,1-1.456-.578,1.9,1.9,0,0,1-.589-1.412A1.9,1.9,0,0,1,963.23-440.633Zm.436,2.432a1.385,1.385,0,0,0,1.02.418,1.384,1.384,0,0,0,1.02-.418,1.39,1.39,0,0,0,.417-1.02,1.387,1.387,0,0,0-.417-1.019,1.388,1.388,0,0,0-1.02-.417,1.388,1.388,0,0,0-1.02.417,1.387,1.387,0,0,0-.417,1.019A1.39,1.39,0,0,0,963.666-438.2Z" transform="translate(-962.641 441.21)" fill="#fff"/>
      </g>
      <g id="Grupo_36" data-name="Grupo 36" transform="translate(108.288 1.217)">
        <path id="Caminho_36" data-name="Caminho 36" d="M987.963-438.691a.781.781,0,0,0-.293-.189,3.551,3.551,0,0,0-.4-.124,4.344,4.344,0,0,1-.437-.136,2.122,2.122,0,0,1-.4-.194.853.853,0,0,1-.293-.322,1.047,1.047,0,0,1-.113-.5.955.955,0,0,1,.343-.749,1.357,1.357,0,0,1,.928-.3,1.607,1.607,0,0,1,.414.053,1.487,1.487,0,0,1,.329.124,2.128,2.128,0,0,1,.229.143.931.931,0,0,1,.144.123l.043.054-.386.389c-.007-.007-.017-.019-.031-.036a.6.6,0,0,0-.092-.081,1.119,1.119,0,0,0-.154-.1.987.987,0,0,0-.216-.08,1.1,1.1,0,0,0-.282-.035.738.738,0,0,0-.482.149.439.439,0,0,0-.182.348.424.424,0,0,0,.113.3.774.774,0,0,0,.293.19,3.577,3.577,0,0,0,.4.124,4.511,4.511,0,0,1,.438.135,2.073,2.073,0,0,1,.4.193.849.849,0,0,1,.293.324,1.046,1.046,0,0,1,.113.5,1.064,1.064,0,0,1-.367.837,1.482,1.482,0,0,1-1.015.324,1.951,1.951,0,0,1-.5-.064,1.667,1.667,0,0,1-.393-.151,2.187,2.187,0,0,1-.267-.177,1.228,1.228,0,0,1-.165-.148l-.054-.067.386-.386c.007.011.019.027.036.047a1.119,1.119,0,0,0,.116.108,1.177,1.177,0,0,0,.2.135,1.279,1.279,0,0,0,.279.105,1.4,1.4,0,0,0,.368.047.851.851,0,0,0,.567-.176.546.546,0,0,0,.208-.434A.418.418,0,0,0,987.963-438.691Z" transform="translate(-985.919 441.211)" fill="#fff"/>
      </g>
      <g id="Grupo_37" data-name="Grupo 37" transform="translate(113.648 1.217)">
        <path id="Caminho_37" data-name="Caminho 37" d="M1012.232-438.691a.781.781,0,0,0-.293-.189,3.531,3.531,0,0,0-.4-.124,4.321,4.321,0,0,1-.437-.136,2.124,2.124,0,0,1-.4-.194.852.852,0,0,1-.293-.322,1.045,1.045,0,0,1-.114-.5.956.956,0,0,1,.343-.749,1.358,1.358,0,0,1,.928-.3,1.608,1.608,0,0,1,.414.053,1.479,1.479,0,0,1,.329.124,2.081,2.081,0,0,1,.229.143.947.947,0,0,1,.145.123l.043.054-.386.389-.031-.036a.583.583,0,0,0-.092-.081,1.115,1.115,0,0,0-.154-.1.978.978,0,0,0-.216-.08,1.1,1.1,0,0,0-.282-.035.738.738,0,0,0-.482.149.439.439,0,0,0-.182.348.423.423,0,0,0,.114.3.772.772,0,0,0,.293.19,3.577,3.577,0,0,0,.4.124,4.528,4.528,0,0,1,.437.135,2.068,2.068,0,0,1,.4.193.849.849,0,0,1,.293.324,1.046,1.046,0,0,1,.113.5,1.065,1.065,0,0,1-.367.837,1.483,1.483,0,0,1-1.015.324,1.949,1.949,0,0,1-.5-.064,1.661,1.661,0,0,1-.393-.151,2.2,2.2,0,0,1-.267-.177,1.251,1.251,0,0,1-.165-.148l-.054-.067.386-.386c.007.011.019.027.036.047a1.124,1.124,0,0,0,.116.108,1.16,1.16,0,0,0,.2.135,1.281,1.281,0,0,0,.279.105,1.4,1.4,0,0,0,.368.047.852.852,0,0,0,.567-.176.547.547,0,0,0,.208-.434A.418.418,0,0,0,1012.232-438.691Z" transform="translate(-1010.189 441.211)" fill="#fff"/>
      </g>
      <g id="Grupo_38" data-name="Grupo 38" transform="translate(117.517 1.218)">
        <path id="Caminho_38" data-name="Caminho 38" d="M1028.3-440.633a2,2,0,0,1,1.456-.577,2,2,0,0,1,1.456.577,1.9,1.9,0,0,1,.589,1.412,1.9,1.9,0,0,1-.589,1.412,2,2,0,0,1-1.456.578,2,2,0,0,1-1.456-.578,1.9,1.9,0,0,1-.589-1.412A1.9,1.9,0,0,1,1028.3-440.633Zm.436,2.432a1.384,1.384,0,0,0,1.02.418,1.384,1.384,0,0,0,1.02-.418,1.39,1.39,0,0,0,.417-1.02,1.386,1.386,0,0,0-.417-1.019,1.388,1.388,0,0,0-1.02-.417,1.388,1.388,0,0,0-1.02.417,1.387,1.387,0,0,0-.417,1.019A1.39,1.39,0,0,0,1028.734-438.2Z" transform="translate(-1027.709 441.21)" fill="#fff"/>
      </g>
      <g id="Grupo_39" data-name="Grupo 39" transform="translate(122.99 1.271)">
        <path id="Caminho_39" data-name="Caminho 39" d="M1055.778-440.966v3.871h-.524l-2.157-2.791v2.791h-.607v-3.871h.524l2.157,2.794v-2.794Z" transform="translate(-1052.49 440.966)" fill="#fff"/>
      </g>
      <g id="Grupo_40" data-name="Grupo 40" transform="translate(127.882 1.271)">
        <path id="Caminho_40" data-name="Caminho 40" d="M1077.765-437.1h-.607v-1.687h-1.908v1.687h-.607v-3.871h.607v1.633h1.908v-1.633h.607Z" transform="translate(-1074.642 440.966)" fill="#fff"/>
      </g>
      <g id="Grupo_41" data-name="Grupo 41" transform="translate(132.385 1.218)">
        <path id="Caminho_41" data-name="Caminho 41" d="M1095.623-440.633a2,2,0,0,1,1.456-.577,2,2,0,0,1,1.456.577,1.9,1.9,0,0,1,.589,1.412,1.9,1.9,0,0,1-.589,1.412,2,2,0,0,1-1.456.578,2,2,0,0,1-1.456-.578,1.9,1.9,0,0,1-.589-1.412A1.9,1.9,0,0,1,1095.623-440.633Zm.436,2.432a1.384,1.384,0,0,0,1.02.418,1.385,1.385,0,0,0,1.02-.418,1.39,1.39,0,0,0,.417-1.02,1.387,1.387,0,0,0-.417-1.019,1.389,1.389,0,0,0-1.02-.417,1.388,1.388,0,0,0-1.02.417,1.387,1.387,0,0,0-.417,1.019A1.39,1.39,0,0,0,1096.059-438.2Z" transform="translate(-1095.034 441.21)" fill="#fff"/>
      </g>
      <g id="Grupo_42" data-name="Grupo 42" transform="translate(137.526 1.217)">
        <path id="Caminho_42" data-name="Caminho 42" d="M1120.354-438.691a.779.779,0,0,0-.293-.189,3.528,3.528,0,0,0-.4-.124,4.321,4.321,0,0,1-.437-.136,2.126,2.126,0,0,1-.4-.194.853.853,0,0,1-.293-.322,1.045,1.045,0,0,1-.114-.5.956.956,0,0,1,.343-.749,1.358,1.358,0,0,1,.928-.3,1.605,1.605,0,0,1,.414.053,1.479,1.479,0,0,1,.329.124,2.082,2.082,0,0,1,.229.143.95.95,0,0,1,.145.123l.043.054-.386.389-.031-.036a.586.586,0,0,0-.092-.081,1.1,1.1,0,0,0-.154-.1.979.979,0,0,0-.216-.08,1.108,1.108,0,0,0-.282-.035.737.737,0,0,0-.482.149.439.439,0,0,0-.182.348.423.423,0,0,0,.114.3.772.772,0,0,0,.293.19,3.586,3.586,0,0,0,.4.124,4.527,4.527,0,0,1,.437.135,2.066,2.066,0,0,1,.4.193.846.846,0,0,1,.293.324,1.046,1.046,0,0,1,.113.5,1.065,1.065,0,0,1-.367.837,1.483,1.483,0,0,1-1.015.324,1.949,1.949,0,0,1-.5-.064,1.658,1.658,0,0,1-.393-.151,2.169,2.169,0,0,1-.267-.177,1.231,1.231,0,0,1-.165-.148l-.054-.067.386-.386c.007.011.02.027.036.047a1.132,1.132,0,0,0,.116.108,1.16,1.16,0,0,0,.2.135,1.281,1.281,0,0,0,.279.105,1.4,1.4,0,0,0,.368.047.852.852,0,0,0,.567-.176.546.546,0,0,0,.208-.434A.418.418,0,0,0,1120.354-438.691Z" transform="translate(-1118.311 441.211)" fill="#fff"/>
      </g>
      <g id="Grupo_43" data-name="Grupo 43" transform="translate(141.339 4.478)">
        <path id="Caminho_43" data-name="Caminho 43" d="M1136.188-425.835a.349.349,0,0,1-.252.107.349.349,0,0,1-.252-.107.341.341,0,0,1-.108-.251.346.346,0,0,1,.108-.252.346.346,0,0,1,.252-.108.346.346,0,0,1,.252.108.346.346,0,0,1,.108.252A.341.341,0,0,1,1136.188-425.835Z" transform="translate(-1135.575 426.446)" fill="#fff"/>
      </g>
    </g>
  </g>
</svg>
