<svg xmlns="http://www.w3.org/2000/svg" width="38.274" height="71.225" viewBox="0 0 38.274 71.225">
  <g id="Grupo_76" data-name="Grupo 76" transform="translate(-489.081 -224.003)">
    <g id="Grupo_75" data-name="Grupo 75" transform="translate(489.081 224.003)">
      <g id="Grupo_74" data-name="Grupo 74" transform="translate(5.088 2.518)">
        <path id="Caminho_1617" data-name="Caminho 1617" d="M529.236,288.714s-11.3,1.665-21.405-8.027a34.784,34.784,0,0,1-10.7-24.666,29.819,29.819,0,0,1,8.389-21.433,35.495,35.495,0,0,1,9.254-7.135,33.993,33.993,0,0,0-18.619,25.865,38.385,38.385,0,0,0,.335,8.64c1.461,10.945,8.111,19.137,16.945,24.862,3.484,2.257,8.808,3.734,15.775,3.958Z" transform="translate(-496.05 -227.452)" fill="#ccd5e2"/>
      </g>
      <path id="Caminho_1618" data-name="Caminho 1618" d="M530.473,305.835s3.456-5.909-2.006-12.263C528.467,293.572,526.014,300.707,530.473,305.835Z" transform="translate(-499.53 -242.78)" fill="#ccd5e2"/>
      <path id="Caminho_1619" data-name="Caminho 1619" d="M530.89,314.671s-7.781-1.078-12.929,4.375A11.02,11.02,0,0,0,530.89,314.671Z" transform="translate(-496.876 -248.452)" fill="#ccd5e2"/>
      <path id="Caminho_1620" data-name="Caminho 1620" d="M522.655,312.6s-.082-.031-.234-.08c-1.219-.4-6.977-2.062-12.029.415C510.392,312.931,518.307,316.833,522.655,312.6Z" transform="translate(-494.833 -247.646)" fill="#ccd5e2"/>
      <path id="Caminho_1621" data-name="Caminho 1621" d="M524.737,303.14s-5.686-.669-4.905-11.706A12.324,12.324,0,0,1,524.737,303.14Z" transform="translate(-497.361 -242.203)" fill="#ccd5e2"/>
      <path id="Caminho_1622" data-name="Caminho 1622" d="M516.946,299.541a9.86,9.86,0,0,0-3.679-10.7S512.375,296.419,516.946,299.541Z" transform="translate(-495.59 -241.502)" fill="#ccd5e2"/>
      <path id="Caminho_1623" data-name="Caminho 1623" d="M509.144,293.333s3.679-2.9.112-10.145C509.256,283.188,506.134,290.1,509.144,293.333Z" transform="translate(-494.143 -239.977)" fill="#ccd5e2"/>
      <path id="Caminho_1624" data-name="Caminho 1624" d="M514.19,308.081s-.933-3.756-11.377-2.663C502.813,305.418,506.608,310.954,514.19,308.081Z" transform="translate(-492.787 -245.924)" fill="#ccd5e2"/>
      <path id="Caminho_1625" data-name="Caminho 1625" d="M506.458,301.749s-2.285-3.687-11.337-3.428C495.121,298.321,499.887,304.331,506.458,301.749Z" transform="translate(-490.711 -244.059)" fill="#ccd5e2"/>
      <path id="Caminho_1626" data-name="Caminho 1626" d="M501.381,294.653s0-3.428-8.779-5.853C492.6,288.8,495.7,295.656,501.381,294.653Z" transform="translate(-490.031 -241.492)" fill="#ccd5e2"/>
      <path id="Caminho_1627" data-name="Caminho 1627" d="M497.159,286.167s.605-3.126-6.972-6.888C490.187,279.279,491.8,286.078,497.159,286.167Z" transform="translate(-489.38 -238.922)" fill="#ccd5e2"/>
      <path id="Caminho_1628" data-name="Caminho 1628" d="M495,277.657s.859-2.885-5.919-7.125C489.081,270.532,489.965,277.076,495,277.657Z" transform="translate(-489.081 -236.561)" fill="#ccd5e2"/>
      <path id="Caminho_1629" data-name="Caminho 1629" d="M494.065,269.657s1.71-2.477-3.423-8.607C490.642,261.05,489.458,267.546,494.065,269.657Z" transform="translate(-489.466 -234.002)" fill="#ccd5e2"/>
      <path id="Caminho_1630" data-name="Caminho 1630" d="M494.5,260.964s1.976-2.084-1.964-8.619C492.531,252.345,490.46,258.3,494.5,260.964Z" transform="translate(-489.869 -231.653)" fill="#ccd5e2"/>
      <path id="Caminho_1631" data-name="Caminho 1631" d="M496.125,253.527s1.968-1.889-1.477-8.264C494.648,245.263,492.417,250.816,496.125,253.527Z" transform="translate(-490.404 -229.741)" fill="#ccd5e2"/>
      <path id="Caminho_1632" data-name="Caminho 1632" d="M498.637,247.359s1.991-1.221.272-7.184C498.909,240.175,496.029,244.415,498.637,247.359Z" transform="translate(-491.365 -228.368)" fill="#ccd5e2"/>
      <path id="Caminho_1633" data-name="Caminho 1633" d="M502.076,241.742s1.968-1.027.731-6.793C502.806,234.949,499.8,238.779,502.076,241.742Z" transform="translate(-492.358 -226.957)" fill="#ccd5e2"/>
      <path id="Caminho_1634" data-name="Caminho 1634" d="M505.505,237.543s1.956-.676,1.608-6.163C507.113,231.38,503.811,234.5,505.505,237.543Z" transform="translate(-493.384 -225.994)" fill="#ccd5e2"/>
      <path id="Caminho_1635" data-name="Caminho 1635" d="M509.178,233.574s2.026-.422,2.379-5.909C511.557,227.665,507.886,230.337,509.178,233.574Z" transform="translate(-494.431 -224.991)" fill="#ccd5e2"/>
      <path id="Caminho_1636" data-name="Caminho 1636" d="M513.665,230.046s1.679-.2,2.359-4.635C516.024,225.411,512.847,227.321,513.665,230.046Z" transform="translate(-495.68 -224.383)" fill="#ccd5e2"/>
      <path id="Caminho_1637" data-name="Caminho 1637" d="M517.938,227.673s1.436.028,2.523-3.631C520.461,224.042,517.563,225.282,517.938,227.673Z" transform="translate(-496.861 -224.013)" fill="#ccd5e2"/>
      <path id="Caminho_1638" data-name="Caminho 1638" d="M518.475,229.425s.688-1.261,4.4-.391C522.88,229.035,520.365,230.936,518.475,229.425Z" transform="translate(-497.015 -225.278)" fill="#ccd5e2"/>
      <path id="Caminho_1639" data-name="Caminho 1639" d="M514.235,232.4s.732-1.342,4.687-.415C518.922,231.987,516.246,234.01,514.235,232.4Z" transform="translate(-495.87 -226.07)" fill="#ccd5e2"/>
      <path id="Caminho_1640" data-name="Caminho 1640" d="M510.179,236.041s.69-1.55,5.146-.88C515.325,235.161,512.547,237.638,510.179,236.041Z" transform="translate(-494.776 -226.969)" fill="#ccd5e2"/>
      <path id="Caminho_1641" data-name="Caminho 1641" d="M506.7,239.867s.615-1.667,5.32-1.271C512.02,238.6,509.285,241.375,506.7,239.867Z" transform="translate(-493.837 -227.925)" fill="#ccd5e2"/>
      <path id="Caminho_1642" data-name="Caminho 1642" d="M502.987,244.761s.585-1.889,5.836-1.728C508.823,243.032,505.949,246.283,502.987,244.761Z" transform="translate(-492.834 -229.136)" fill="#ccd5e2"/>
      <path id="Caminho_1643" data-name="Caminho 1643" d="M500.765,249.759s.446-2.028,5.957-2.319C506.722,247.44,504,251.093,500.765,249.759Z" transform="translate(-492.235 -230.329)" fill="#ccd5e2"/>
      <path id="Caminho_1644" data-name="Caminho 1644" d="M498.867,255.605s.161-2.254,6.047-3.435C504.914,252.17,502.558,256.532,498.867,255.605Z" transform="translate(-491.722 -231.605)" fill="#ccd5e2"/>
      <path id="Caminho_1645" data-name="Caminho 1645" d="M498.1,261.976s-.257-2.4,5.716-4.762C503.811,257.214,502.157,262.253,498.1,261.976Z" transform="translate(-491.514 -232.967)" fill="#ccd5e2"/>
      <path id="Caminho_1646" data-name="Caminho 1646" d="M498.268,269.84s-.835-2.678,5.435-6.709C503.7,263.131,502.955,269.24,498.268,269.84Z" transform="translate(-491.551 -234.564)" fill="#ccd5e2"/>
      <path id="Caminho_1647" data-name="Caminho 1647" d="M499.881,277.333s-1.381-2.441,3.894-7.705C503.775,269.628,504.334,275.757,499.881,277.333Z" transform="translate(-491.952 -236.317)" fill="#ccd5e2"/>
      <path id="Caminho_1648" data-name="Caminho 1648" d="M503.623,285.82s-2.079-2.138,1.924-8.976C505.548,276.844,507.778,283,503.623,285.82Z" transform="translate(-492.861 -238.265)" fill="#ccd5e2"/>
      <path id="Caminho_1649" data-name="Caminho 1649" d="M521.511,226.529a2.826,2.826,0,0,1,1.915-2.23A21.436,21.436,0,0,1,526.8,224s-.367.44-.731.937a4.928,4.928,0,0,1-3.01,1.978C522.394,227.047,521.78,227,521.511,226.529Z" transform="translate(-497.834 -224.003)" fill="#ccd5e2"/>
    </g>
  </g>
</svg>
