<svg id="Grupo_65" data-name="Grupo 65" xmlns="http://www.w3.org/2000/svg" width="303.383" height="135.565" viewBox="0 0 303.383 135.565">
  <path id="Caminho_1521" data-name="Caminho 1521" d="M124.724,230.978l2.464-.009,1.067-5.132.781,0a6.237,6.237,0,0,0,1.584-.186,3.64,3.64,0,0,0,1.248-.606,3.4,3.4,0,0,0,.957-1.158,6.733,6.733,0,0,0,.611-1.793l.5-2.389a3.269,3.269,0,0,0-.307-2.8,2.243,2.243,0,0,0-1.115-.655h-4.723Zm5.092-12.651.813,0q.674,0,.842.334a2.066,2.066,0,0,1-.013,1.21l-.385,1.85c-.056.268-.1.475-.14.623a3.944,3.944,0,0,1-.174.5,1.24,1.24,0,0,1-.26.416,1.218,1.218,0,0,1-.374.237,1.4,1.4,0,0,1-.546.1l-.858,0Z" transform="translate(-75.886 -99.246)" fill="#0f111a"/>
  <path id="Caminho_1522" data-name="Caminho 1522" d="M143.3,219.742l-.012.01v-.01a2.178,2.178,0,0,0-1.9,1.22l.212-1.018-2.4.008-2.448,11.772,2.4-.008,1.625-7.816q.45-1.9,1.751-1.9h.01a1.541,1.541,0,0,1,.377.044,1.045,1.045,0,0,1,.272.1c.062.035.121.071.178.106s.089.058.1.064l.5-2.38A1,1,0,0,0,143.3,219.742Z" transform="translate(-78.552 -100.021)" fill="#0f111a"/>
  <path id="Caminho_1523" data-name="Caminho 1523" d="M153.581,221.2a1.766,1.766,0,0,0-.437-.816,2.1,2.1,0,0,0-.87-.506,4.394,4.394,0,0,0-1.372-.182,5.076,5.076,0,0,0-1.737.276,2.986,2.986,0,0,0-1.22.806,4.487,4.487,0,0,0-.768,1.191,8.07,8.07,0,0,0-.477,1.568l-.945,4.544a8.411,8.411,0,0,0-.175,1.258,3.308,3.308,0,0,0,.1,1.042,1.8,1.8,0,0,0,.449.811,2.15,2.15,0,0,0,.887.5,4.45,4.45,0,0,0,1.382.182,5.094,5.094,0,0,0,1.744-.274,2.9,2.9,0,0,0,1.2-.807,4.372,4.372,0,0,0,.746-1.186,8.433,8.433,0,0,0,.466-1.563l.945-4.543a8.306,8.306,0,0,0,.175-1.263A3.5,3.5,0,0,0,153.581,221.2ZM151.1,223.47l-.959,4.613a3.467,3.467,0,0,1-.432,1.22,1.013,1.013,0,0,1-.883.36,1.093,1.093,0,0,1-.455-.078.6.6,0,0,1-.254-.189.622.622,0,0,1-.086-.339,2.218,2.218,0,0,1,.022-.419c.02-.131.055-.311.1-.539l.961-4.621a3.439,3.439,0,0,1,.434-1.225,1.02,1.02,0,0,1,.894-.365,1.082,1.082,0,0,1,.522.1.461.461,0,0,1,.229.337,1.768,1.768,0,0,1,.02.476C151.2,222.961,151.163,223.183,151.1,223.47Z" transform="translate(-80.506 -100.01)" fill="#0f111a"/>
  <path id="Caminho_1524" data-name="Caminho 1524" d="M164.919,220.406a1.608,1.608,0,0,0-.7-.552,2.841,2.841,0,0,0-1.146-.2,2,2,0,0,0-1.8.994l.161-.774-2.386.008-3.193,15.355,2.387-.008.912-4.388a1.254,1.254,0,0,0,1.41.995,3.514,3.514,0,0,0,1.224-.2,2.85,2.85,0,0,0,.915-.541,3.387,3.387,0,0,0,.665-.859,5.927,5.927,0,0,0,.476-1.083,12.8,12.8,0,0,0,.335-1.3l.873-4.2a11.6,11.6,0,0,0,.2-1.282,4.765,4.765,0,0,0-.023-1.087A2.054,2.054,0,0,0,164.919,220.406Zm-2.124,2.5c-.019.143-.051.326-.1.549l-.951,4.573a3.524,3.524,0,0,1-.435,1.229,1.019,1.019,0,0,1-.9.37q-.64,0-.744-.36a2.8,2.8,0,0,1,.07-1.195l.963-4.632a3.42,3.42,0,0,1,.438-1.225,1.026,1.026,0,0,1,.89-.365,1.051,1.051,0,0,1,.44.077.588.588,0,0,1,.251.2.658.658,0,0,1,.092.342A2.538,2.538,0,0,1,162.8,222.9Z" transform="translate(-82.785 -100.001)" fill="#0f111a"/>
  <path id="Caminho_1525" data-name="Caminho 1525" d="M174.733,219.616a5.321,5.321,0,0,0-1.7.251,2.915,2.915,0,0,0-1.187.732,3.933,3.933,0,0,0-.74,1.08,6.471,6.471,0,0,0-.444,1.405l-.136.656,2.387-.008.142-.685a2.131,2.131,0,0,1,.385-.94,1.064,1.064,0,0,1,.848-.3q.64,0,.745.354a2.849,2.849,0,0,1-.074,1.218l-.339,1.636a4.993,4.993,0,0,0-3.068-.035,2.342,2.342,0,0,0-1,.684,3.744,3.744,0,0,0-.627,1.034,8.222,8.222,0,0,0-.406,1.406,7.336,7.336,0,0,0-.174,1.484,3.193,3.193,0,0,0,.2,1.158,1.469,1.469,0,0,0,.71.786,2.8,2.8,0,0,0,1.312.265,2.053,2.053,0,0,0,1.105-.287,2.43,2.43,0,0,0,.8-.913l-.208,1,2.376-.008,1.738-8.364a3.722,3.722,0,0,0-.2-2.695Q176.62,219.61,174.733,219.616Zm-.713,8.282c-.045.215-.085.39-.121.524a3.045,3.045,0,0,1-.165.456,1.284,1.284,0,0,1-.249.391,1.141,1.141,0,0,1-.358.237,1.261,1.261,0,0,1-.514.1q-.619,0-.738-.364a2.183,2.183,0,0,1,.026-1.062,5.012,5.012,0,0,1,.142-.553,2.409,2.409,0,0,1,.218-.476.976.976,0,0,1,.375-.373,1.118,1.118,0,0,1,.547-.129,1.552,1.552,0,0,1,1.031.309Z" transform="translate(-85.775 -99.993)" fill="#0f111a"/>
  <path id="Caminho_1526" data-name="Caminho 1526" d="M187.262,220.646a1.241,1.241,0,0,0-1.386-1.052,3.482,3.482,0,0,0-1.224.2,2.85,2.85,0,0,0-.914.536,3.294,3.294,0,0,0-.666.859,6.047,6.047,0,0,0-.475,1.083,12.5,12.5,0,0,0-.334,1.293l-.881,4.241a10.775,10.775,0,0,0-.2,1.283,4.687,4.687,0,0,0,.032,1.076,1.987,1.987,0,0,0,.314.861,1.61,1.61,0,0,0,.7.541,2.879,2.879,0,0,0,1.147.2,2.023,2.023,0,0,0,1.8-1.083l-.2.97q-.362,1.743-1.361,1.747a5.762,5.762,0,0,1-2.166-.277l-.539,1.921a5.2,5.2,0,0,0,2.67.51,3.2,3.2,0,0,0,2.525-1.012,6.234,6.234,0,0,0,1.28-2.9l2.466-11.86-2.408.008Zm-.58,2.791-.886,4.26c-.048.235-.095.431-.139.587a4.508,4.508,0,0,1-.174.5,1.542,1.542,0,0,1-.245.421,1.074,1.074,0,0,1-.347.261,1.1,1.1,0,0,1-.482.1,1.065,1.065,0,0,1-.44-.076.593.593,0,0,1-.251-.2.644.644,0,0,1-.091-.342,2.4,2.4,0,0,1,.019-.431q.028-.21.1-.543l.951-4.574a3.476,3.476,0,0,1,.441-1.238,1.021,1.021,0,0,1,.891-.37.654.654,0,0,1,.577.247.93.93,0,0,1,.17.568A6.4,6.4,0,0,1,186.682,223.437Z" transform="translate(-88.337 -99.988)" fill="#0f111a"/>
  <path id="Caminho_1527" data-name="Caminho 1527" d="M198.652,219.539a5.342,5.342,0,0,0-1.7.25,2.908,2.908,0,0,0-1.188.733,3.958,3.958,0,0,0-.739,1.079,6.487,6.487,0,0,0-.444,1.406l-.136.656,2.387-.008.142-.685a2.13,2.13,0,0,1,.384-.941,1.066,1.066,0,0,1,.849-.3c.427,0,.675.117.744.355a2.835,2.835,0,0,1-.074,1.218l-.34,1.635a4.326,4.326,0,0,0-1.616-.258,4.257,4.257,0,0,0-1.451.224,2.347,2.347,0,0,0-1,.684,3.749,3.749,0,0,0-.627,1.034,8.183,8.183,0,0,0-.406,1.405,7.218,7.218,0,0,0-.173,1.484,3.2,3.2,0,0,0,.2,1.158,1.469,1.469,0,0,0,.711.786,2.788,2.788,0,0,0,1.311.264,2.058,2.058,0,0,0,1.106-.286,2.446,2.446,0,0,0,.8-.913l-.209,1,2.377-.008,1.739-8.363a3.724,3.724,0,0,0-.2-2.7Q200.541,219.534,198.652,219.539Zm-.712,8.282c-.045.215-.086.39-.121.524a3.054,3.054,0,0,1-.166.455,1.29,1.29,0,0,1-.249.392,1.142,1.142,0,0,1-.358.236,1.26,1.26,0,0,1-.514.1q-.619,0-.738-.365a2.183,2.183,0,0,1,.026-1.062,5.22,5.22,0,0,1,.142-.553,2.435,2.435,0,0,1,.218-.475.974.974,0,0,1,.376-.374,1.119,1.119,0,0,1,.547-.128,1.549,1.549,0,0,1,1.031.309Z" transform="translate(-91.076 -99.976)" fill="#0f111a"/>
  <path id="Caminho_1528" data-name="Caminho 1528" d="M213.187,220.245a1.59,1.59,0,0,0-.687-.531,2.729,2.729,0,0,0-1.1-.192,1.956,1.956,0,0,0-1.835,1l.167-.8-2.4.008L204.888,231.5l2.4-.008,1.69-8.129a3.561,3.561,0,0,1,.45-1.254,1.012,1.012,0,0,1,.89-.394q.64,0,.742.339a2.752,2.752,0,0,1-.072,1.185l-1.714,8.246,2.4-.008,1.672-8.041a10.808,10.808,0,0,0,.195-1.272,4.656,4.656,0,0,0-.032-1.072A1.966,1.966,0,0,0,213.187,220.245Z" transform="translate(-93.651 -99.972)" fill="#0f111a"/>
  <path id="Caminho_1529" data-name="Caminho 1529" d="M223.6,219.793a1.231,1.231,0,0,0-1.371-1.024,3.5,3.5,0,0,0-1.231.209,2.931,2.931,0,0,0-.928.551,3.478,3.478,0,0,0-.678.863,5.723,5.723,0,0,0-.475,1.059,10.964,10.964,0,0,0-.318,1.215l-.908,4.368a11.164,11.164,0,0,0-.2,1.288,4.41,4.41,0,0,0,.027,1.066,1.89,1.89,0,0,0,.314.841,1.554,1.554,0,0,0,.694.517,2.992,2.992,0,0,0,1.143.187,2.059,2.059,0,0,0,1.836-1.062l-.178.862,2.4-.008,3.01-14.48h-2.4Zm-.55,2.644-.953,4.583c-.058.281-.114.507-.168.68a2.528,2.528,0,0,1-.233.519.94.94,0,0,1-.383.378,1.238,1.238,0,0,1-.566.12c-.428,0-.674-.121-.743-.365a2.9,2.9,0,0,1,.076-1.228l.95-4.573c.047-.223.091-.406.131-.549a3.39,3.39,0,0,1,.161-.437,1.039,1.039,0,0,1,.234-.342,1.05,1.05,0,0,1,.335-.2,1.312,1.312,0,0,1,.472-.079.979.979,0,0,1,.484.1.477.477,0,0,1,.231.318,1.685,1.685,0,0,1,.046.46A4.347,4.347,0,0,1,223.049,222.437Z" transform="translate(-96.439 -99.246)" fill="#0f111a"/>
  <path id="Caminho_1530" data-name="Caminho 1530" d="M235.059,219.421a5.344,5.344,0,0,0-1.7.25,2.92,2.92,0,0,0-1.188.733,3.953,3.953,0,0,0-.739,1.079,6.48,6.48,0,0,0-.444,1.406l-.136.656,2.387-.008.142-.685a2.123,2.123,0,0,1,.385-.941,1.066,1.066,0,0,1,.848-.3c.426,0,.675.117.745.355a2.849,2.849,0,0,1-.074,1.218l-.341,1.635a4.325,4.325,0,0,0-1.616-.258,4.259,4.259,0,0,0-1.451.224,2.357,2.357,0,0,0-1,.684,3.727,3.727,0,0,0-.627,1.034,8.12,8.12,0,0,0-.407,1.405,7.266,7.266,0,0,0-.173,1.484,3.213,3.213,0,0,0,.2,1.158,1.473,1.473,0,0,0,.711.786,2.79,2.79,0,0,0,1.311.264,2.056,2.056,0,0,0,1.106-.287,2.44,2.44,0,0,0,.8-.913l-.208,1,2.376-.008,1.739-8.364a3.72,3.72,0,0,0-.2-2.7Q236.948,219.415,235.059,219.421Zm-.712,8.282c-.045.215-.086.39-.121.524a3.049,3.049,0,0,1-.165.455,1.292,1.292,0,0,1-.249.392,1.16,1.16,0,0,1-.358.236,1.264,1.264,0,0,1-.515.1c-.412,0-.658-.12-.738-.365a2.194,2.194,0,0,1,.026-1.062,5.221,5.221,0,0,1,.142-.554,2.446,2.446,0,0,1,.219-.475.976.976,0,0,1,.375-.374,1.124,1.124,0,0,1,.547-.128,1.548,1.548,0,0,1,1.031.309Z" transform="translate(-99.144 -99.95)" fill="#0f111a"/>
  <path id="Caminho_1531" data-name="Caminho 1531" d="M253.345,219.717a1.231,1.231,0,0,0-1.371-1.023,3.5,3.5,0,0,0-1.231.209,2.914,2.914,0,0,0-.928.551,3.49,3.49,0,0,0-.677.863,5.788,5.788,0,0,0-.476,1.058,11.209,11.209,0,0,0-.317,1.216l-.908,4.367a11.555,11.555,0,0,0-.2,1.287,4.42,4.42,0,0,0,.028,1.067,1.9,1.9,0,0,0,.313.841,1.555,1.555,0,0,0,.7.516,2.97,2.97,0,0,0,1.143.188,2.059,2.059,0,0,0,1.837-1.063l-.179.862,2.4-.008,2.994-14.4h-2.4Zm-.55,2.644-.953,4.583q-.088.422-.168.681a2.586,2.586,0,0,1-.233.519.951.951,0,0,1-.383.378,1.231,1.231,0,0,1-.567.119c-.427,0-.674-.121-.743-.365a2.914,2.914,0,0,1,.076-1.228l.95-4.573q.07-.334.131-.549a3.347,3.347,0,0,1,.161-.438.948.948,0,0,1,.569-.544,1.31,1.31,0,0,1,.472-.08.973.973,0,0,1,.483.1.479.479,0,0,1,.232.317,1.7,1.7,0,0,1,.046.462A4.359,4.359,0,0,1,252.794,222.361Z" transform="translate(-103.031 -99.246)" fill="#0f111a"/>
  <path id="Caminho_1532" data-name="Caminho 1532" d="M282.785,219.291l-.012.009v-.009a2.177,2.177,0,0,0-1.9,1.219l.213-1.018-2.4.008-2.448,11.772,2.4-.008,1.625-7.815q.448-1.9,1.751-1.9h.011a1.564,1.564,0,0,1,.376.044,1.048,1.048,0,0,1,.273.1c.062.035.12.071.178.107s.089.058.1.063l.495-2.38A1.006,1.006,0,0,0,282.785,219.291Z" transform="translate(-109.463 -99.921)" fill="#0f111a"/>
  <path id="Caminho_1533" data-name="Caminho 1533" d="M303.553,219.527a3.922,3.922,0,0,0-1.8-.323,5.71,5.71,0,0,0-1.5.186,3.644,3.644,0,0,0-1.068.464,2.589,2.589,0,0,0-.705.732,4.084,4.084,0,0,0-.442.877,8.142,8.142,0,0,0-.268,1,2.971,2.971,0,0,0-.023,1.209,2.528,2.528,0,0,0,.388.947,4.66,4.66,0,0,0,.643.742q.368.347.738.649a8.653,8.653,0,0,1,.667.6,2.011,2.011,0,0,1,.446.669,1.341,1.341,0,0,1,.064.792q-.229,1.1-1.076,1.1-.618,0-.711-.386a3.573,3.573,0,0,1,.109-1.354l-2.408.008a8.728,8.728,0,0,0-.214,1.7,2.746,2.746,0,0,0,.257,1.217,1.571,1.571,0,0,0,.884.78,4.524,4.524,0,0,0,1.646.245,4.126,4.126,0,0,0,2.763-.8,4.435,4.435,0,0,0,1.265-2.51,3.291,3.291,0,0,0,.034-1.263,2.615,2.615,0,0,0-.387-1.006,5.121,5.121,0,0,0-.649-.786,9.543,9.543,0,0,0-.755-.672q-.386-.308-.7-.595a2.028,2.028,0,0,1-.467-.626,1.077,1.077,0,0,1-.084-.69,1.539,1.539,0,0,1,.365-.74.949.949,0,0,1,.729-.3c.347,0,.553.125.616.38a2.875,2.875,0,0,1-.071,1.174l2.353,0a6.031,6.031,0,0,0,.138-2.281A1.566,1.566,0,0,0,303.553,219.527Z" transform="translate(-113.928 -99.902)" fill="#0f111a"/>
  <path id="Caminho_1534" data-name="Caminho 1534" d="M312.516,227.82a3.018,3.018,0,0,1-.438,1.064,1,1,0,0,1-.838.33,1.126,1.126,0,0,1-.455-.076.573.573,0,0,1-.252-.2.657.657,0,0,1-.086-.347,2.314,2.314,0,0,1,.025-.43q.029-.2.1-.543l1.7-8.187-2.4.008-1.666,8.011a11.438,11.438,0,0,0-.2,1.277,4.63,4.63,0,0,0,.026,1.076,1.959,1.959,0,0,0,.315.861,1.613,1.613,0,0,0,.7.536,2.874,2.874,0,0,0,1.147.2,2.023,2.023,0,0,0,1.793-1.062l-.181.872,2.387-.007,2.448-11.773-2.387.008Z" transform="translate(-116.5 -99.952)" fill="#0f111a"/>
  <path id="Caminho_1535" data-name="Caminho 1535" d="M319.52,230.487l2.4-.008,2.959-14.235h-2.4Z" transform="translate(-119.055 -99.246)" fill="#0f111a"/>
  <path id="Caminho_1536" data-name="Caminho 1536" d="M329.288,218.687l-1.182,0-.442,2.125,1.183,0-1.238,5.954a9.876,9.876,0,0,0-.222,1.61,3.415,3.415,0,0,0,.157,1.2,1.372,1.372,0,0,0,.682.81,2.864,2.864,0,0,0,1.339.265,3.944,3.944,0,0,0,2.144-.663l.255-1.909a3.308,3.308,0,0,1-1.55.417.455.455,0,0,1-.518-.38,4.12,4.12,0,0,1,.132-1.362l1.238-5.954,1.769-.006.441-2.125-1.768.005.507-2.435H329.8Z" transform="translate(-120.797 -99.246)" fill="#0f111a"/>
  <path id="Caminho_1537" data-name="Caminho 1537" d="M340.98,219.078a5.3,5.3,0,0,0-1.7.251,2.907,2.907,0,0,0-1.187.732,3.936,3.936,0,0,0-.74,1.079,6.483,6.483,0,0,0-.444,1.406l-.136.656,2.387-.008.143-.685a2.133,2.133,0,0,1,.385-.941,1.066,1.066,0,0,1,.848-.3q.64,0,.745.354a2.853,2.853,0,0,1-.074,1.219l-.34,1.636a4.993,4.993,0,0,0-3.068-.035,2.349,2.349,0,0,0-1,.684,3.73,3.73,0,0,0-.627,1.035,8.191,8.191,0,0,0-.406,1.405,7.211,7.211,0,0,0-.174,1.484,3.191,3.191,0,0,0,.2,1.157,1.463,1.463,0,0,0,.71.786,2.784,2.784,0,0,0,1.312.265,2.048,2.048,0,0,0,1.105-.287,2.431,2.431,0,0,0,.8-.912l-.208,1,2.377-.008,1.739-8.364a3.726,3.726,0,0,0-.2-2.7Q342.867,219.071,340.98,219.078Zm-.713,8.282c-.045.216-.085.39-.121.524a3.051,3.051,0,0,1-.165.455,1.293,1.293,0,0,1-.249.391,1.144,1.144,0,0,1-.358.236,1.252,1.252,0,0,1-.514.1c-.412,0-.658-.12-.737-.365a2.183,2.183,0,0,1,.026-1.062,5.008,5.008,0,0,1,.142-.553,2.411,2.411,0,0,1,.218-.476.978.978,0,0,1,.375-.373,1.125,1.125,0,0,1,.547-.129,1.546,1.546,0,0,1,1.032.31Z" transform="translate(-122.616 -99.874)" fill="#0f111a"/>
  <path id="Caminho_1538" data-name="Caminho 1538" d="M354.414,216.244l-.669,3.22a1.231,1.231,0,0,0-1.372-1.023,3.461,3.461,0,0,0-1.231.209,2.9,2.9,0,0,0-.928.551,3.472,3.472,0,0,0-.678.863,5.676,5.676,0,0,0-.475,1.059,10.8,10.8,0,0,0-.318,1.214l-.909,4.368a11.339,11.339,0,0,0-.2,1.288,4.45,4.45,0,0,0,.027,1.066,1.9,1.9,0,0,0,.314.84,1.551,1.551,0,0,0,.694.517,2.992,2.992,0,0,0,1.143.187,2.055,2.055,0,0,0,1.836-1.063l-.179.863,2.4-.008,2.943-14.152Zm-1.219,5.864-.953,4.583c-.058.281-.114.507-.169.681a2.511,2.511,0,0,1-.233.519.946.946,0,0,1-.382.378,1.234,1.234,0,0,1-.567.121q-.64,0-.742-.366a2.9,2.9,0,0,1,.076-1.228l.95-4.573q.07-.334.13-.549a3.259,3.259,0,0,1,.161-.436.946.946,0,0,1,.569-.545,1.282,1.282,0,0,1,.472-.079.978.978,0,0,1,.484.1.478.478,0,0,1,.231.318,1.633,1.633,0,0,1,.046.46A4.321,4.321,0,0,1,353.2,222.108Z" transform="translate(-125.28 -99.246)" fill="#0f111a"/>
  <path id="Caminho_1539" data-name="Caminho 1539" d="M367.41,219.687a2.1,2.1,0,0,0-.87-.505,4.376,4.376,0,0,0-1.372-.183,5.078,5.078,0,0,0-1.737.276,2.978,2.978,0,0,0-1.221.806,4.465,4.465,0,0,0-.768,1.191,8.04,8.04,0,0,0-.477,1.568l-.945,4.544a8.276,8.276,0,0,0-.174,1.258,3.312,3.312,0,0,0,.1,1.042,1.8,1.8,0,0,0,.449.811,2.152,2.152,0,0,0,.887.505,4.5,4.5,0,0,0,1.382.182,5.113,5.113,0,0,0,1.744-.275,2.909,2.909,0,0,0,1.2-.807,4.385,4.385,0,0,0,.746-1.186,8.455,8.455,0,0,0,.466-1.563l.945-4.544a8.288,8.288,0,0,0,.175-1.262,3.5,3.5,0,0,0-.1-1.042A1.764,1.764,0,0,0,367.41,219.687Zm-2.041,3.089-.959,4.612a3.461,3.461,0,0,1-.432,1.221,1.014,1.014,0,0,1-.884.36,1.093,1.093,0,0,1-.455-.078.6.6,0,0,1-.254-.189.614.614,0,0,1-.086-.339,2.146,2.146,0,0,1,.021-.42c.02-.131.054-.31.1-.539l.961-4.621a3.44,3.44,0,0,1,.434-1.225,1.021,1.021,0,0,1,.893-.365,1.073,1.073,0,0,1,.522.1.459.459,0,0,1,.229.336,1.767,1.767,0,0,1,.02.476C365.465,222.267,365.429,222.489,365.369,222.776Z" transform="translate(-127.99 -99.857)" fill="#0f111a"/>
  <path id="Caminho_1540" data-name="Caminho 1540" d="M264.015,227.84a2.941,2.941,0,0,1-.415,1.074,1.046,1.046,0,0,1-.9.381c-.427,0-.678-.121-.754-.366a2.669,2.669,0,0,1,.06-1.2l.226-1.087,4.6-.915.554-2.664a6.7,6.7,0,0,0,.163-1.488,2.9,2.9,0,0,0-.262-1.168,1.645,1.645,0,0,0-.878-.81,4.074,4.074,0,0,0-1.64-.273,5.236,5.236,0,0,0-1.741.265,2.932,2.932,0,0,0-1.211.792,4.3,4.3,0,0,0-.76,1.176,8.11,8.11,0,0,0-.47,1.558l-.957,4.6a8.114,8.114,0,0,0-.176,1.263,3.306,3.306,0,0,0,.1,1.036,1.777,1.777,0,0,0,.445.806,2.149,2.149,0,0,0,.884.5,4.453,4.453,0,0,0,1.382.181,5,5,0,0,0,1.743-.279,2.945,2.945,0,0,0,1.2-.812,4.417,4.417,0,0,0,.741-1.167,7.879,7.879,0,0,0,.453-1.5l.083-.4Zm-1.046-4.761a3.2,3.2,0,0,1,.441-1.2,1.323,1.323,0,0,1,1.434-.244.5.5,0,0,1,.242.346,1.566,1.566,0,0,1,.028.465,5.475,5.475,0,0,1-.1.6l-.242,1.165-2.133.456Z" transform="translate(-105.742 -99.929)" fill="#0f111a"/>
  <path id="Caminho_1541" data-name="Caminho 1541" d="M289.634,227.84a2.941,2.941,0,0,1-.415,1.074,1.046,1.046,0,0,1-.9.381q-.641,0-.753-.366a2.659,2.659,0,0,1,.059-1.2l.226-1.087,4.6-.915.555-2.664a6.743,6.743,0,0,0,.163-1.488,2.912,2.912,0,0,0-.261-1.168,1.649,1.649,0,0,0-.879-.81,4.074,4.074,0,0,0-1.64-.273,5.24,5.24,0,0,0-1.741.265,2.935,2.935,0,0,0-1.211.792,4.3,4.3,0,0,0-.76,1.176,8.18,8.18,0,0,0-.47,1.558l-.957,4.6a8.108,8.108,0,0,0-.176,1.263,3.33,3.33,0,0,0,.1,1.036,1.777,1.777,0,0,0,.445.806,2.149,2.149,0,0,0,.884.5,4.453,4.453,0,0,0,1.382.181,5,5,0,0,0,1.744-.279,2.947,2.947,0,0,0,1.2-.812,4.425,4.425,0,0,0,.741-1.167,7.813,7.813,0,0,0,.454-1.5l.082-.4Zm-1.045-4.761a3.191,3.191,0,0,1,.44-1.2,1.323,1.323,0,0,1,1.434-.244.5.5,0,0,1,.242.346,1.6,1.6,0,0,1,.029.465,5.866,5.866,0,0,1-.1.6l-.243,1.165-2.133.456Z" transform="translate(-111.42 -99.929)" fill="#0f111a"/>
  <path id="Caminho_1542" data-name="Caminho 1542" d="M357.892,66.075H331.646l-.539,2.641a1.987,1.987,0,0,0,.778,2l1.4,1.015a3.231,3.231,0,0,1,1.255,3.321l-8.783,43.587h-.007a20.478,20.478,0,0,0-20.023-24.258H286.092a30.276,30.276,0,0,0-29.909,24.342l-5.806,28.8a20.228,20.228,0,0,0,.37,9.495l-3.9,1.264a4.345,4.345,0,0,1-5.6-5L257.22,74.9a7.47,7.47,0,0,0-7.319-8.962H228.636L228.1,68.57a2,2,0,0,0,.784,2.017l1.391,1.01a3.232,3.232,0,0,1,1.255,3.321l-6.254,29.805a20.091,20.091,0,0,0-12.45-8.976l-4.175-.86a23.84,23.84,0,0,0-28.162,18.536l-7.66,37.161a17.969,17.969,0,0,0-.086,6.83l-1.967.65a4.792,4.792,0,0,1-6.2-5.507L180.406,74.9a7.47,7.47,0,0,0-7.319-8.962H147.174L146.754,68a2.338,2.338,0,0,0,.866,2.321,10.643,10.643,0,0,1,1,16L61.982,172.5H98.4l10.416-10.36h25.97l-.7,4.838a7.514,7.514,0,0,0,9.794,8.205l31.894-10.534h0a17.97,17.97,0,0,0,11.074,7.244l.081.016c8.923,1.839,19.09-.672,25.59-6.077l-.256,1.146a7.514,7.514,0,0,0,9.794,8.205L254.6,164.5a21.381,21.381,0,0,0,7.063,5.768,20.654,20.654,0,0,0,9.332,2.224,51.785,51.785,0,0,0,16.236-2.612l21.843-7.213a15.123,15.123,0,0,0,3.838-1.913c-.413,6.8,3.344,12.96,9.369,14.558,7.013,1.86,14.428-3.154,16.563-11.2s-1.821-16.075-8.835-17.936c-5.421-1.438-11.072,1.242-14.349,6.246l-28.13,9.289a7.784,7.784,0,0,1-9.348-3.592,7.212,7.212,0,0,1,4.1-10.242l12.331-4.072v0l27.929-9.222.009,0-.842,4.18a19.626,19.626,0,0,1,10.3-.106,19.361,19.361,0,0,1,8.353,4.673l24.859-68.293A7.47,7.47,0,0,0,357.892,66.075Zm-222,88.34H116.579L139.025,132.1Zm86.655-37.527-7.3,35.409a7.622,7.622,0,0,1-9,5.926,7.2,7.2,0,0,1-5.6-8.5l7.385-35.824a7.2,7.2,0,0,1,8.5-5.6l.414.086A7.2,7.2,0,0,1,222.549,116.888Zm77.606,0-3.768,18.277-16.236,5.362,5.49-26.631a7.2,7.2,0,0,1,8.5-5.6l.414.086A7.2,7.2,0,0,1,300.155,116.888Z" transform="translate(-61.982 -65.937)" fill="#0f111a"/>
</svg>